<svg id="Capa_1" data-name="Capa 1" xmlns="http://www.w3.org/2000/svg" viewBox="0 0 123.79 49.4"><defs><style>.cls-1{fill:#fefefe;}.cls-2{fill:#fefefd;}.cls-3{fill:#076738;}.cls-4{fill:#434040;}.cls-5{fill:#423f3f;}.cls-6{fill:#fafafa;}.cls-7{fill:#fcfcfc;}.cls-8{fill:#f8f8f8;}.cls-9{fill:#fe6c3b;}.cls-10{fill:#f7f7f7;}.cls-11{fill:#f6f6f6;}.cls-12{fill:#feac2a;}.cls-13{fill:#fd0b15;}.cls-14{fill:#4d4a4a;}.cls-15{fill:#4d4b4b;}.cls-16{fill:#096839;}.cls-17{fill:#f4f2f1;}.cls-18{fill:#f4f4f4;}.cls-19{fill:#4b4848;}.cls-20{fill:#535050;}.cls-21{fill:#4a4848;}.cls-22{fill:#957648;}.cls-23{fill:#504d4d;}.cls-24{fill:#4e4b4b;}.cls-25{fill:#fe952b;}.cls-26{fill:#5a5757;}.cls-27{fill:#595757;}.cls-28{fill:#fe8c21;}.cls-29{fill:#f91215;}.cls-30{fill:#fea02f;}.cls-31{fill:#fe5d19;}.cls-32{fill:#fbfbfb;}.cls-33{fill:#f71a15;}.cls-34{fill:#f02216;}.cls-35{fill:#d33f1a;}.cls-36{fill:#fe4c19;}.cls-37{fill:#f91515;}.cls-38{fill:#e72f18;}.cls-39{fill:#a65422;}.cls-40{fill:#bb4c1e;}.cls-41{fill:#e03418;}.cls-42{fill:#f31e16;}.cls-43{fill:#fe7e1e;}.cls-44{fill:#8b5c26;}.cls-45{fill:#c4481d;}.cls-46{fill:#db3919;}.cls-47{fill:#fe751c;}.cls-48{fill:#eb2917;}.cls-49{fill:#775f29;}.cls-50{fill:#fe661a;}.cls-51{fill:#b15020;}.cls-52{fill:#fe4227;}.cls-53{fill:#cc441c;}.cls-54{fill:#f33f35;}.cls-55{fill:#fb3339;}.cls-56{fill:#fe3b17;}.cls-57{fill:#21774d;}.cls-58{fill:#fe851f;}.cls-59{fill:#feb547;}.cls-60{fill:#fe7a2c;}.cls-61{fill:#fe4537;}.cls-62{fill:#896534;}.cls-63{fill:#fe4418;}.cls-64{fill:#d84a29;}.cls-65{fill:#187244;}.cls-66{fill:#fe6d2f;}.cls-67{fill:#fe6d1b;}.cls-68{fill:#dc4e2f;}.cls-69{fill:#f9f9f9;}.cls-70{fill:#fea033;}.cls-71{fill:#1b7348;}.cls-72{fill:#666f3e;}.cls-73{fill:#feb03a;}.cls-74{fill:#e94530;}.cls-75{fill:#cb5d37;}.cls-76{fill:#b05e31;}.cls-77{fill:#fe542b;}.cls-78{fill:#fe8435;}.cls-79{fill:#926734;}.cls-80{fill:#fe2a15;}.cls-81{fill:#fd1615;}.cls-82{fill:#9b5724;}.cls-83{fill:#fea62d;}.cls-84{fill:#fd1b25;}.cls-85{fill:#f82624;}.cls-86{fill:#fe8e2b;}.cls-87{fill:#ed3325;}.cls-88{fill:#935a25;}.cls-89{fill:#56622c;}.cls-90{fill:#2f632e;}.cls-91{fill:#fe3316;}.cls-92{fill:#ec2717;}.cls-93{fill:#fe3d2b;}.cls-94{fill:#fe2215;}.cls-95{fill:#62612b;}.cls-96{fill:#6a602b;}.cls-97{fill:#3d632d;}.cls-98{fill:#4a632d;}.cls-99{fill:#444141;}.cls-100{fill:#f1f1f1;}.cls-101{fill:#c0bfbd;}.cls-102{fill:#beb3a8;}.cls-103{fill:#ddd;}.cls-104{fill:#b9b9b9;}.cls-105{fill:#b2b2b2;}.cls-106{fill:#ececec;}.cls-107{fill:#e8e8e8;}.cls-108{fill:#eee;}.cls-109{fill:#b0afaf;}.cls-110{fill:#c6c6c6;}.cls-111{fill:#b6b6b6;}.cls-112{fill:#b8b8b8;}.cls-113{fill:#dedede;}.cls-114{fill:#b5b5b5;}.cls-115{fill:#ebebeb;}.cls-116{fill:#dfdfdf;}.cls-117{fill:#b3b3b3;}.cls-118{fill:#b1b1b1;}.cls-119{fill:#d8d8d8;}.cls-120{fill:#a7a7a7;}.cls-121{fill:#acacac;}.cls-122{fill:#f0f0f0;}.cls-123{fill:#a0a0a0;}.cls-124{fill:#f5f5f5;}.cls-125{fill:#d0d0d0;}.cls-126{fill:#e6e6e6;}.cls-127{fill:#cecece;}.cls-128{fill:#aeaeae;}.cls-129{fill:#c4c4c4;}.cls-130{fill:#acabac;}.cls-131{fill:#c2c2c2;}.cls-132{fill:#efefef;}.cls-133{fill:#e7e7e7;}.cls-134{fill:#dbdbdb;}.cls-135{fill:#e1e2e2;}.cls-136{fill:#766735;}.cls-137{fill:#dcdcdb;}.cls-138{fill:#d3d3d3;}.cls-139{fill:#d44c2b;}.cls-140{fill:#d2d2d2;}.cls-141{fill:#ababab;}.cls-142{fill:#d5d5d5;}.cls-143{fill:#a8a8a8;}.cls-144{fill:#afafaf;}.cls-145{fill:#a1a1a1;}.cls-146{fill:#d9d9d9;}.cls-147{fill:#dcdcdc;}.cls-148{fill:#c7c7c7;}.cls-149{fill:#e2e2e2;}.cls-150{fill:#d1d1d1;}.cls-151{fill:#a2a2a2;}.cls-152{fill:#bdbdbd;}.cls-153{fill:#adadad;}.cls-154{fill:#bebebe;}.cls-155{fill:#a5a5a5;}.cls-156{fill:#a9a9a9;}.cls-157{fill:#fd1e22;}.cls-158{fill:#fe8d2c;}.cls-159{fill:#1e7042;}.cls-160{fill:#fc1a20;}.cls-161{fill:#cf4a29;}.cls-162{fill:#fe611c;}.cls-163{fill:#cc5b3b;}.cls-164{fill:#b06539;}.cls-165{fill:#fe5f26;}.cls-166{fill:#fe1f1b;}.cls-167{fill:#fef6f4;}</style></defs><title>logodru</title><path class="cls-1" d="M537.09,49.51q-30.29,0-60.58,0c-1,0-1.18-.2-1.17-1.17q.06-23.53,0-47.07c0-1,.19-1.16,1.17-1.16q60.72,0,121.44,0c1,0,1.18.19,1.17,1.16q-.06,23.53,0,47.07c0,1-.19,1.17-1.17,1.17Q567.51,49.48,537.09,49.51Z" transform="translate(-475.34 -0.14)"/><path class="cls-2" d="M523.2,25.26c-.24.44-.55.85-1.08.84-1.84-.06-3.73.38-5.48-.54a1.74,1.74,0,0,0-1.63-.08,4.26,4.26,0,0,1-4.34-.37,1.2,1.2,0,0,0-1.64,0,3.32,3.32,0,0,1-4,.19,1.65,1.65,0,0,0-1.74,0c-2.12,1-3,.86-4.49-.87-.56-.67-.91-.59-1.5-.14a9.74,9.74,0,0,1-8.41,1.48,3,3,0,0,1-2.26-2.33,20,20,0,0,1-.26-7.92c.51-3.74,2.3-4,5.89-3.86a8.34,8.34,0,0,1,5.28,1.88c.37.32.68.39,1.07-.08,1.39-1.69,2.53-2,4.44-1.18a2.63,2.63,0,0,0,2.26,0,9.78,9.78,0,0,1,8.5.67c.73.41,1.23.67,1.89-.19a3.76,3.76,0,0,1,2.6-1c2.1-.3,4.41-.62,6.1.59s2.54.82,3.94,0c1.6-.91,3.5-.65,5.19-.39a14.16,14.16,0,0,0,4.37-.19,21,21,0,0,1,6.52.1,1,1,0,0,1,.85.65c0,.66-.5,1-.88,1.46a1.13,1.13,0,0,1-.38.12,1,1,0,0,1-.57-.17,1.12,1.12,0,0,0-.83-.49c-2.11,0-4.23,0-6.33,0a3.05,3.05,0,0,0-.85.23c-1.7-.49-3.35-1.29-5.2-.75a6.45,6.45,0,0,0-1,.31,5.82,5.82,0,0,0-3.66,3.69c-.27.38-.51.91-1.1.56s-.33-.81-.16-1.27c.82-2.17,0-3.37-2.28-3.39-1.66,0-3.35-.29-5,.36-.6.14-.77.65-1,1.14-.91,1.44-1,1.46-2.1.26a5,5,0,0,0-4-1.77c-1.36,0-2.75-.28-4.06.32a1.51,1.51,0,0,0-1,.88c-.51.76-1.06.86-1.66.09a1.94,1.94,0,0,0-.9-.93,2.11,2.11,0,0,0-2.28,0,1.62,1.62,0,0,0-.65.62c-.87,1.72-.87,1.73-2.54.6a3.73,3.73,0,0,0-.64-.3,2.58,2.58,0,0,1-.37-.19A8.69,8.69,0,0,0,489.9,13a4,4,0,0,1-.56.25c-1.12,0-1.38.76-1.43,1.67a51.66,51.66,0,0,0-.08,7.36c.06,1.71,1.57,2.77,3.6,2.54a20,20,0,0,0,3.09-.41,3.59,3.59,0,0,0,2.62-1.48c1.24-1.29,1.52-1.24,2.23.34s1.45,1.83,3,1.3a2,2,0,0,0,1-1c.65-.84,1.22-.56,1.76.13,1.26,1.44,1.74,1.38,3.5.09.94-.69,1.49-.78,2.28,0a2.73,2.73,0,0,0,3.84.4,1.17,1.17,0,0,1,1.34-.2c1.66,1.21,3.55.79,5.37.88C522,24.92,522.69,24.76,523.2,25.26Z" transform="translate(-475.34 -0.14)"/><path class="cls-3" d="M579.34,2.77c2.28,0,4.57-.1,6.86,0a9.54,9.54,0,0,1,9.17,9.46q0,16.61,0,33.21c0,.44.3,1.24-.52,1.2s-.47-.82-.47-1.28q0-16.32,0-32.64a8.57,8.57,0,0,0-7.7-8.91c-2.41-.17-4.83,0-7.25-.1C579.06,3.41,579.1,3.1,579.34,2.77Z" transform="translate(-475.34 -0.14)"/><path class="cls-4" d="M575,16.14a5.15,5.15,0,0,1,2.36-2.85,2.89,2.89,0,0,1,1.25-.56c1.56-.2,3.11-.28,4.45.78a5.48,5.48,0,0,1,1.39,1.71,10.11,10.11,0,0,1,.62,1.61A5.47,5.47,0,0,1,582.92,22a6,6,0,0,1-1.84.77,5.72,5.72,0,0,1-1.93.19,7.68,7.68,0,0,1-2.37-.87,8.8,8.8,0,0,1-1.38-1.28,6.1,6.1,0,0,1-.7-1.11A3.51,3.51,0,0,1,575,16.14Z" transform="translate(-475.34 -0.14)"/><path class="cls-5" d="M558.66,14.14c-.27-.83.1-1.18.92-1.19a10.21,10.21,0,0,1,4.6,0,4,4,0,0,1,1.21.69,2.87,2.87,0,0,1,.79,1.06c.64,2.23-.11,3.75-1.95,4,.87,1.16,2.1,2.09,2.57,3.56-.52.65-1.19.48-1.86.36a17.43,17.43,0,0,1-2-2,5.13,5.13,0,0,0-.65-.88,1.18,1.18,0,0,0-.88-.41,1.36,1.36,0,0,0-.66.15c-.54.91.06,2-.5,2.93a.88.88,0,0,1-.4.25,1.58,1.58,0,0,1-.75,0,.8.8,0,0,1-.61-.47A24.15,24.15,0,0,1,558.66,14.14Z" transform="translate(-475.34 -0.14)"/><path class="cls-6" d="M523.2,25.26a30.82,30.82,0,0,1-4.71-.05c-1.83-.28-3.5-1.17-5.44,0-.8.47-1.89-.47-2.56-1.2s-.83-.77-1.47,0a2.55,2.55,0,0,1-4,.24c-.08-.08-.08-.26-.12-.39a5.72,5.72,0,0,1-.72-3.66c0-1.32,0-2.64,0-4,0-.59-.1-1.27.65-1.57.59.5.47,1.2.49,1.85.05,1.84-.08,3.68.09,5.51.05.28.08.56.14.84A1.3,1.3,0,0,0,506.77,24a1.39,1.39,0,0,0,1.42-1c.83-1.74,1-1.76,2.42-.42A5.34,5.34,0,0,0,512,23.81a1.67,1.67,0,0,0,1.87,0c.58-.53.33-1.2,0-1.81-.53-.91-1.08-1.84-.14-2.84,1.27-1.62,1-3.38-.68-4.9l-.32-.22a2.48,2.48,0,0,0-1-.48l-.39-.13a11.36,11.36,0,0,0-4.75-.14.85.85,0,0,1-.83-.29c2.21-1.25,6.84-.72,8.35,1.16.82,1,1.27,1.21,1.95,0,.54.52.43,1.2.45,1.85.07,2-.11,4.12.13,6.17.33,1.66.82,2.13,2.45,2.14s3.53.23,5.22-.45a.89.89,0,0,1,.64.27A2.15,2.15,0,0,1,523.2,25.26Z" transform="translate(-475.34 -0.14)"/><path class="cls-4" d="M525.49,16.71A4.93,4.93,0,0,1,529.22,13a9.86,9.86,0,0,1,2.87-.21,1.8,1.8,0,0,1,.88.36,1.29,1.29,0,0,1,.5.77,1.12,1.12,0,0,1-.16.87c-.63.46-1.26.08-1.89,0a3.24,3.24,0,0,0-3.94,2.43,2.7,2.7,0,0,0,.91,2.87c.1.06.2.14.3.21a1.83,1.83,0,0,0,.77.4c.28.05.58.08.86.15a1.9,1.9,0,0,0,1.2,0c.29,0,.6.15.87-.09a.58.58,0,0,0,.26-.06c.76-.21.81.32.89.83a1.25,1.25,0,0,1-.23.7,3,3,0,0,1-1.58.59,17.09,17.09,0,0,1-2.58,0,5.11,5.11,0,0,1-1.66-.68,10.05,10.05,0,0,1-1.43-1.34,4.67,4.67,0,0,1-.91-2.95A5.79,5.79,0,0,1,525.49,16.71Z" transform="translate(-475.34 -0.14)"/><path class="cls-7" d="M578.48,12.94l-1.15.35c1.47-1.61,3.47-1.43,5.18-1,4.13,1,5.4,3.6,5.08,7.61-.47,5.91-7.87,7.31-11.52,3.91-1.12-1-1.59-.68-2.18.33a.81.81,0,0,1-.26-.37,10.59,10.59,0,0,1,.25-2.51.64.64,0,0,1,.49-.63.73.73,0,0,1,.82.41c.36.55.54,1.22,1.13,1.59a6.39,6.39,0,0,0,6.95,1.49,2.69,2.69,0,0,0,1.78-1.49,2.5,2.5,0,0,1,.49-.71c2-2.08,1.42-5.81-1.11-7.63A7.6,7.6,0,0,0,578.48,12.94Z" transform="translate(-475.34 -0.14)"/><path class="cls-8" d="M558.66,14.14l.06,8.23c.73.47.84,1.67,2,1.65s1.21-1.16,1.68-1.86a.8.8,0,0,1,1.32-.19,17.68,17.68,0,0,1,1.34,1.26,2.49,2.49,0,0,0,1.34.76,1.37,1.37,0,0,0,1.42-.43,1.19,1.19,0,0,0,0-1.33,5.19,5.19,0,0,0-.68-1.08c-.58-.77-.13-1.44.22-2.11,1.09-2.08.82-3.31-1.05-4.83A2.63,2.63,0,0,1,566,14a4.71,4.71,0,0,0-1.54-.72,25.42,25.42,0,0,0-4.85-.34l.56-.24c.63-.37,1.38.1,2-.28h.57c1.35.22,2.77.14,4,.85l.29.29a3.76,3.76,0,0,1,1.14,1.14l.29.57a3.17,3.17,0,0,1,.22,3.61,2.49,2.49,0,0,0,.05,2.64c.88,1.58.45,2.67-1.13,3.45a1.7,1.7,0,0,1-1.43,0,1.58,1.58,0,0,1-1.15-.57c-.22-.18-.45-.33-.66-.52-1.13-1.06-1.14-1.05-1.91.23-1.5,1.47-3.47,1-4-.94-.42-1.46-.42-1.46-1.71-.48-.38-.54-.06-1,.15-1.47a4.89,4.89,0,0,0,.1-4.51,1.35,1.35,0,0,1-.12-1,1.37,1.37,0,0,0,1.58-1.33Z" transform="translate(-475.34 -0.14)"/><path class="cls-9" d="M561,3.7c-.48,0-1,.08-1.43.08l-71.17,0c-.47,0-.94-.07-1.41-.11.55-.65,1.31-.37,2-.45s1.29,0,1.94,0c.83,0,1.66,0,2.49,0s1.52,0,2.27,0c.6,0,1.19,0,1.78,0,.77,0,1.54,0,2.31,0q1.68,0,3.36,0c.95,0,1.89,0,2.83,0,.68,0,1.35,0,2,0s1.33,0,2,0c.49,0,1,0,1.47,0s1.15,0,1.72,0c.41,0,.83,0,1.25,0,.6,0,1.2,0,1.81,0,3.27,0,6.53,0,9.8,0,1.81,0,3.61,0,5.41,0,1.06,0,2.12,0,3.19,0q1.3,0,2.61,0c1,0,2.08,0,3.12,0,.78,0,1.55,0,2.33,0,1,0,1.89,0,2.84,0s1.72,0,2.58,0,1.55,0,2.32,0q1.55,0,3.09,0c.67,0,1.35,0,2,0s1.48,0,2.22,0,1.55,0,2.33,0a1.86,1.86,0,0,1,.66.14A.46.46,0,0,1,561,3.7Z" transform="translate(-475.34 -0.14)"/><path class="cls-8" d="M525.49,16.71l0,1.15c-.28,1.28.38,2.37.71,3.53.12.43.56.81.2,1.31-.61-.31-1.14-.49-1.16.53a3.39,3.39,0,0,1-.28.89h-.57c-.36-.78.2-1.86-.8-2.43a1.24,1.24,0,0,1-.21-1.76,1.79,1.79,0,0,0,0-2.22,1.19,1.19,0,0,1,.11-1.54c1.27-1.72.89-2.52-1.25-2.75-1.24,0-2.46,0-3.69,0-.56,0-1.15,0-1.57-.47a10.78,10.78,0,0,1,6.57-.24c1.72.39,2.19,1.88,1.35,3.43-.19.35-.68.77-.24,1.13S525.1,16.78,525.49,16.71Z" transform="translate(-475.34 -0.14)"/><path class="cls-10" d="M576.18,23A2.4,2.4,0,0,1,575,21.31c-.07-.25-.21-.47-.46-.47s-.33.25-.36.5c-.09.83-.19,1.66-.29,2.5a2.5,2.5,0,0,1-.86.85c-2.29.63-3.74-.37-3.85-2.69-.09-1.89,0-3.78,0-5.66,0-.6,0-1.31.69-1.67a2.52,2.52,0,0,1,.43,1.86c.06,1.87-.11,3.74.12,5.59.17.86.31,1.78,1.54,1.58s1.22-1.05,1.23-1.94c0-2,0-3.89,0-5.83a1.83,1.83,0,0,0-1.35-2.06.9.9,0,0,1-.55-.65,1.55,1.55,0,0,1,0-.22c1.52-.51,2.7.46,2.88,2.31,0,.43-.33,1.36.78.83a6.77,6.77,0,0,0,.11,3.6,6.26,6.26,0,0,0,.84,1.86C576.12,22,576.58,22.43,576.18,23Z" transform="translate(-475.34 -0.14)"/><path class="cls-11" d="M526.35,22.7c-.69-1.54-1.46-3.07-.91-4.84a6.05,6.05,0,0,0,.9,2.86A7,7,0,0,0,530.79,24a4.29,4.29,0,0,0,1.82,0c.65-.17,1.36-.29,1.56-1.05s-.6-.87-.9-1.32c-.1-.37.15-1-.62-.89,1.47-.42,2.7.12,3.07,1.36A2.63,2.63,0,0,1,534,24.93a7.21,7.21,0,0,1-5.09-.24,3.93,3.93,0,0,0-1.14-.57A4.31,4.31,0,0,1,526.35,22.7Z" transform="translate(-475.34 -0.14)"/><path class="cls-5" d="M570.16,22.46c-.58-.59-.24-1.33-.26-2-.07-1.91,0-3.83-.07-5.75a.53.53,0,0,1,0-.58c-.2-1.27.63-1.22,1.48-1.14l0,0a4.61,4.61,0,0,1,.48,2.58c-.07,2.19.25,4.4-.19,6.58a.85.85,0,0,1-.9.47A1.16,1.16,0,0,1,570.16,22.46Z" transform="translate(-475.34 -0.14)"/><path class="cls-6" d="M569.83,14.14v.58c-.53,2.48-.1,5-.23,7.49a2.78,2.78,0,0,0,.27,1.22c.64,1.52,1.94,1.26,3.16,1.26a1.62,1.62,0,0,1-2.39.15c-.92-.73-1.58-.79-2.37,0-.13.13-.45.07-.68.1,1.43-1.17,1.58-2.15.55-3.76-.3-.47-.79-.91-.32-1.51a4.69,4.69,0,0,0,.63-4.43C569.65,15.79,569.09,14.18,569.83,14.14Z" transform="translate(-475.34 -0.14)"/><path class="cls-12" d="M480.81,6.72a10.37,10.37,0,0,0-2,6.21c0,2.09,0,4.18,0,6.27,0,.35.11.88-.44.87s-.45-.52-.45-.88c0-2.61-.09-5.22,0-7.83a8.43,8.43,0,0,1,2.23-5.25C480.57,6.16,480.67,6.47,480.81,6.72Z" transform="translate(-475.34 -0.14)"/><path class="cls-10" d="M532.39,20.71c-.16.39-.5.31-.81.3-.43.23-.79,0-1.16-.17-.13-.06-.25-.13-.37-.2a2.74,2.74,0,0,1-.86-2.6A2.17,2.17,0,0,1,531,16.4a18.9,18.9,0,0,1,2.26-.08,2.47,2.47,0,0,0,1.11-.14c.57-.28,1.07-1.08,1.74-.68,1,.58,2.26.78,2.84,2a23.92,23.92,0,0,1,.12,4.86,1.28,1.28,0,0,1-.39.95c-.83-1.39-.53-2.92-.56-4.4,0-1.64-1.17-2.63-2.7-2a9.26,9.26,0,0,1-3.48.43c-.92,0-1.77.07-1.84,1.25s.23,1.88,1.5,2A3.49,3.49,0,0,1,532.39,20.71Z" transform="translate(-475.34 -0.14)"/><path class="cls-13" d="M526.06,3.51H516a.47.47,0,0,1,0-.73h10A.48.48,0,0,1,526.06,3.51Z" transform="translate(-475.34 -0.14)"/><path class="cls-14" d="M575.19,33.08c.37-.69-.3-1.87.54-1.86s.27,1.18.41,1.81a4.1,4.1,0,0,1,0,1c0,.22.09.5-.22.61a.65.65,0,0,1-.75-.21c-.47-.51-.7-1.22-1.28-1.59-.28,0-.19.21-.23.33-.14.5.33,1.43-.34,1.43-.9,0-.41-1-.42-1.49s-.45-1.65.33-1.91.94.87,1.45,1.32A6.91,6.91,0,0,1,575.19,33.08Z" transform="translate(-475.34 -0.14)"/><path class="cls-15" d="M541.42,33.35a8.64,8.64,0,0,1,.05-.93c.12-.44-.33-1.24.43-1.24s.38.77.35,1.19c-.07.76.45,1.92-.3,2.2s-1-1-1.61-1.49c-.1-.09-.19-.2-.36-.38-.3.45-.11.92-.16,1.35,0,.27.06.6-.38.62s-.45-.25-.45-.56c0-.76,0-1.52,0-2.28,0-.28,0-.59.32-.7a.68.68,0,0,1,.74.31C540.44,32,540.82,32.51,541.42,33.35Z" transform="translate(-475.34 -0.14)"/><path class="cls-16" d="M554.72,12.93l.5.38a3.09,3.09,0,0,1,1.2,1.4c.33.58.22,1.29.54,1.87a6.61,6.61,0,0,1-.75,4.32c-.3.61-.63,1.29-1.51,1.28a1,1,0,0,1-.28-.86,8.21,8.21,0,0,1,.64-1.71,5.54,5.54,0,0,0-.42-4.9,2.58,2.58,0,0,1-.45-1.17C554.23,13.22,554.29,12.91,554.72,12.93Z" transform="translate(-475.34 -0.14)"/><path class="cls-17" d="M556.58,16.46l-.4-1.75c.66-.08.75.37.81.86,1.31,2.43.89,4.79-.28,7.13h0A3.3,3.3,0,0,1,555,24.12a6,6,0,0,1-6,.26c.54-.5,1.22-.31,1.85-.37,5.33.41,6.6-3.59,6-7.27A.32.32,0,0,0,556.58,16.46Z" transform="translate(-475.34 -0.14)"/><path class="cls-18" d="M538.66,23.27l0-.92a.57.57,0,0,1,.65,0,1.8,1.8,0,0,1,.26.34c.27.45.57,1,1.18.85s.83-.67,1-1.27a20.72,20.72,0,0,0,.29-3.69c0-.79-.32-2.11.76-2.11.9,0,.41,1.35.61,2.08a.52.52,0,0,1-.19.39c-.6,1.47.11,3.09-.53,4.56a2.62,2.62,0,0,1-.86.86c-.76.4-1.52.93-2.29,0a2.72,2.72,0,0,1-.86-.86Z" transform="translate(-475.34 -0.14)"/><path class="cls-19" d="M556.17,32.82c.07-.81-.39-1.89,1.19-1.75,1.34.11,2.13.66,2.16,1.75s-.8,1.85-2.19,1.86C556.17,34.69,556.17,34.69,556.17,32.82Z" transform="translate(-475.34 -0.14)"/><path class="cls-20" d="M569.3,32.89c0-1.93.12-2.05,1.94-1.81.27,0,.64,0,.61.38s-.4.27-.65.34-1-.29-1,.39c0,.51.61.26.95.31s.53.08.54.34-.35.34-.62.39-.9-.24-.86.37.59.26.93.32.75-.05.71.45-.5.29-.79.31C569.3,34.8,569.3,34.79,569.3,32.89Z" transform="translate(-475.34 -0.14)"/><path class="cls-21" d="M550.36,32.82a1.8,1.8,0,0,1-1.83,1.91,1.74,1.74,0,0,1-2-1.72,1.81,1.81,0,0,1,1.88-2A1.88,1.88,0,0,1,550.36,32.82Z" transform="translate(-475.34 -0.14)"/><path class="cls-20" d="M560.42,33.09c0-2.1.2-2.28,2-2,.28,0,.61,0,.57.42s-.33.27-.55.29-.29,0-.43,0-.64-.11-.67.29.43.37.72.41.78-.08.77.38-.49.3-.8.34-.65-.11-.69.28.4.37.7.43,1-.22.94.48c-.06.52-.62.2-1,.28C560.35,35,560.2,34.1,560.42,33.09Z" transform="translate(-475.34 -0.14)"/><path class="cls-22" d="M561,3.7V3.57c.49-.47,1.12-.35,1.71-.39.75,0,1.51,0,2.26,0,.58,0,1.16,0,1.74,0s1,0,1.49,0c.74,0,1.48,0,2.23,0s1.46,0,2.19,0c.32,0,.64,0,1,0s.78,0,1.16,0,.93,0,1.39,0c.3,0,.61,0,.92,0s.62,0,.93,0a2,2,0,0,1,1.35.34l6,.06c.45,0,1-.16,1.36.19Z" transform="translate(-475.34 -0.14)"/><path class="cls-20" d="M531,32.91c0-1.86.32-2.16,1.95-1.78a1.13,1.13,0,0,1,1,1.17,1.1,1.1,0,0,1-1,1.16c-.63.07-1.26,0-1.14.94,0,.22-.21.28-.41.27a.35.35,0,0,1-.38-.34C531,33.86,531,33.38,531,32.91Z" transform="translate(-475.34 -0.14)"/><path class="cls-23" d="M538,32.48c0,1.79-.65,2.47-2,2.23a1.26,1.26,0,0,1-1.14-1.1,4,4,0,0,1,.13-2.36c.14-.27.54-.17.58.22a11.22,11.22,0,0,1,0,1.42c0,.57.08,1.1.78,1.13s.85-.47.82-1.06a1.55,1.55,0,0,1,0-.43c.12-.46-.3-1.32.33-1.33C538.38,31.18,537.78,32.09,538,32.48Z" transform="translate(-475.34 -0.14)"/><path class="cls-14" d="M583.59,34.47c-.27.24-.51.31-.79.05a1.32,1.32,0,0,0-2.13,0,.46.46,0,0,1-.64,0c-.19-.15,0-.32.06-.48.33-.83.65-1.66,1-2.48.23-.52.75-.84,1.07-.31A27.27,27.27,0,0,1,583.59,34.47Z" transform="translate(-475.34 -0.14)"/><path class="cls-24" d="M553.63,31.65c-.52.38-1.1-.18-1.6.3.3.93,2.86.71,1.46,2.51-.5.63-1.79.29-2.31-.47.14-.21.33-.13.51-.08.45.13,1.06.4,1.24-.15s-.56-.52-.9-.68c-.53-.24-.93-.53-.88-1.14a.93.93,0,0,1,.82-.87C552.59,31,553.29,30.82,553.63,31.65Z" transform="translate(-475.34 -0.14)"/><path class="cls-25" d="M543.2,19l0-.32c-.21-.83.09-1.71-.21-2.53a1.36,1.36,0,0,1,0-.45c.22-.7.37-1.45,1.12-1.83a.85.85,0,0,1,.24-.09,1.2,1.2,0,0,1,.49,1,7,7,0,0,0,.68,6.85.93.93,0,0,1-.27.85A5.77,5.77,0,0,1,543.2,19Z" transform="translate(-475.34 -0.14)"/><path class="cls-24" d="M566.79,33.64c.33-.88.57-1.5.79-2.12a.49.49,0,0,1,.65-.38c.28.1.2.37.11.6-.34.84-.63,1.7-1,2.51s-.82.62-1.12,0c-.39-.81-.65-1.67-1-2.52-.08-.21-.24-.46.07-.59a.45.45,0,0,1,.6.25Z" transform="translate(-475.34 -0.14)"/><path class="cls-26" d="M578.45,31.09a5.41,5.41,0,0,1,1.14,0c.33.07.45.55.14.57-1.46.11-.79,1.18-1,1.87-.09.39.37,1.1-.43,1.1s-.33-.65-.41-1c-.16-.71.5-1.74-.88-2-.3-.06-.06-.5.26-.54a8.66,8.66,0,0,1,1.14,0Z" transform="translate(-475.34 -0.14)"/><path class="cls-27" d="M544.6,31.05a7,7,0,0,1,1.13.07c.3.08.5.52.13.57-1.55.17-.72,1.32-.91,2-.1.36.2,1-.5.94s-.29-.58-.36-.9c-.16-.78.51-1.93-1-2.14-.16,0,0-.45.23-.49A10.83,10.83,0,0,1,544.6,31.05Z" transform="translate(-475.34 -0.14)"/><path class="cls-28" d="M488.84,3.55l-1.87.1a14.92,14.92,0,0,0-3,.79c-.29.2-.53.16-.65-.18s.12-.5.37-.65a9.17,9.17,0,0,1,5.16-.83A.53.53,0,0,1,488.84,3.55Z" transform="translate(-475.34 -0.14)"/><path class="cls-29" d="M526.06,3.51V2.78h5.44a.47.47,0,0,1,0,.73Z" transform="translate(-475.34 -0.14)"/><path class="cls-30" d="M483.67,3.61c-.19.37-.43.76.28.83-1,.85-2.4,1.1-3.14,2.28a1,1,0,0,1-.6-.61A7.6,7.6,0,0,1,483.67,3.61Z" transform="translate(-475.34 -0.14)"/><path class="cls-31" d="M503.16,3.51h-3.44a.48.48,0,0,1,0-.74h3.44A.49.49,0,0,1,503.16,3.51Z" transform="translate(-475.34 -0.14)"/><path class="cls-32" d="M557,15.57l-.81-.86-1-1.4c.88-.08,1.15.72,1.58,1.2.66.74,1.12.76,1.62-.09a8.58,8.58,0,0,1-.39,2.23Z" transform="translate(-475.34 -0.14)"/><path class="cls-33" d="M531.5,3.51V2.78h3.15a.47.47,0,0,1,0,.73Z" transform="translate(-475.34 -0.14)"/><path class="cls-34" d="M540.38,3.51h-3.15a.48.48,0,0,1,0-.73h3.15A.47.47,0,0,1,540.38,3.51Z" transform="translate(-475.34 -0.14)"/><path class="cls-35" d="M553.55,3.52H550.4a.47.47,0,0,1,0-.73h3.15A.48.48,0,0,1,553.55,3.52Z" transform="translate(-475.34 -0.14)"/><path class="cls-36" d="M503.16,3.51V2.78H506c.42.23.49.48,0,.73Z" transform="translate(-475.34 -0.14)"/><path class="cls-37" d="M548.7,24.31c-.57-.27-1.38,0-1.75-.71-.21-.35-.1-.6.26-.77a10.29,10.29,0,0,1,3.24.67c.18.46,0,.73-.48.76A7.71,7.71,0,0,0,548.7,24.31Z" transform="translate(-475.34 -0.14)"/><path class="cls-38" d="M545.53,3.51h-2.86a.48.48,0,0,1,0-.73h2.87A.47.47,0,0,1,545.53,3.51Z" transform="translate(-475.34 -0.14)"/><path class="cls-39" d="M565,3.52H562.7c-.34-.16-.57-.35-.26-.74h2.85C565.46,3.12,565.24,3.32,565,3.52Z" transform="translate(-475.34 -0.14)"/><path class="cls-40" d="M560.42,3.53h-2.58a.5.5,0,0,1,0-.74h2.58A.49.49,0,0,1,560.42,3.53Z" transform="translate(-475.34 -0.14)"/><path class="cls-41" d="M545.53,3.51V2.78h2.57a.47.47,0,0,1,0,.73Z" transform="translate(-475.34 -0.14)"/><path class="cls-42" d="M537.23,2.78v.73h-2.58V2.78Z" transform="translate(-475.34 -0.14)"/><path class="cls-43" d="M493.42,3.53h-2.58a.5.5,0,0,1,0-.76h2.58A.51.51,0,0,1,493.42,3.53Z" transform="translate(-475.34 -0.14)"/><path class="cls-44" d="M570.46,3.51h-2.29a.47.47,0,0,1,0-.73h2.3A.48.48,0,0,1,570.46,3.51Z" transform="translate(-475.34 -0.14)"/><path class="cls-45" d="M557.85,2.78c0,.25,0,.5,0,.74h-2.29a.5.5,0,0,1,0-.74Z" transform="translate(-475.34 -0.14)"/><path class="cls-46" d="M548.11,3.51V2.78h2.3c0,.24,0,.49,0,.73Z" transform="translate(-475.34 -0.14)"/><path class="cls-47" d="M493.42,3.53V2.78h2.29a.5.5,0,0,1,0,.75Z" transform="translate(-475.34 -0.14)"/><path class="cls-37" d="M547,11.61a2.5,2.5,0,0,1,2-.62c.5-.17,1-.32,1,.5a4,4,0,0,1-2.67.82C546.93,12.18,546.72,12,547,11.61Z" transform="translate(-475.34 -0.14)"/><path class="cls-48" d="M542.67,2.78v.73h-2.29V2.78Z" transform="translate(-475.34 -0.14)"/><path class="cls-49" d="M570.46,3.51V2.78h2.29a.48.48,0,0,1,0,.73Z" transform="translate(-475.34 -0.14)"/><path class="cls-50" d="M499.71,2.78c0,.25,0,.49,0,.74h-2.27a.62.62,0,0,1,0-.74Z" transform="translate(-475.34 -0.14)"/><path class="cls-51" d="M560.42,3.53V2.78h2l.26.74-1.71,0Z" transform="translate(-475.34 -0.14)"/><path class="cls-52" d="M547.25,23a.74.74,0,0,0-.3.62,4,4,0,0,1-1.7-1.15c0-.33,0-.67,0-1C546.12,21.74,547,22,547.25,23Z" transform="translate(-475.34 -0.14)"/><path class="cls-53" d="M555.56,2.78c0,.25,0,.49,0,.74h-2c0-.25,0-.5,0-.74Z" transform="translate(-475.34 -0.14)"/><path class="cls-54" d="M504.05,32.39c.52,0,.79.25.8.67a.66.66,0,0,1-.71.7.65.65,0,0,1-.65-.61C503.43,32.69,503.74,32.5,504.05,32.39Z" transform="translate(-475.34 -0.14)"/><path class="cls-55" d="M498.78,33.77a.7.7,0,0,1-.73-.56.64.64,0,0,1,.59-.81.62.62,0,0,1,.73.54C499.46,33.39,499.18,33.63,498.78,33.77Z" transform="translate(-475.34 -0.14)"/><path class="cls-56" d="M510,3.51h-2a.47.47,0,0,1,0-.73h2A.48.48,0,0,1,510,3.51Z" transform="translate(-475.34 -0.14)"/><path class="cls-57" d="M529.46,33c0,.52-.31.8-.7.81a.66.66,0,0,1-.69-.72.63.63,0,0,1,.61-.64C529.16,32.34,529.32,32.68,529.46,33Z" transform="translate(-475.34 -0.14)"/><path class="cls-58" d="M490.83,2.78c0,.25,0,.51,0,.76h-2c0-.26,0-.52,0-.77Z" transform="translate(-475.34 -0.14)"/><path class="cls-59" d="M479.08,22.64a.67.67,0,0,1-.81.56.61.61,0,0,1-.54-.71.63.63,0,0,1,.8-.59A.65.65,0,0,1,479.08,22.64Z" transform="translate(-475.34 -0.14)"/><path class="cls-60" d="M544.62,14.71c-.29-.26-.21-.62-.27-.94l.93-1.26.57-.29a.83.83,0,0,1,.21.78A3.3,3.3,0,0,1,544.62,14.71Z" transform="translate(-475.34 -0.14)"/><path class="cls-61" d="M494,33.07c-.08.42-.32.71-.76.68a.63.63,0,0,1-.62-.67.66.66,0,0,1,.75-.68C493.71,32.43,493.88,32.71,494,33.07Z" transform="translate(-475.34 -0.14)"/><path class="cls-62" d="M554.72,12.93l-.32.71a2,2,0,0,1-1.64-1.22.79.79,0,0,1,.21-.8A3.69,3.69,0,0,1,554.72,12.93Z" transform="translate(-475.34 -0.14)"/><path class="cls-63" d="M508,2.78v.73h-2a.57.57,0,0,0,0-.73Z" transform="translate(-475.34 -0.14)"/><path class="cls-64" d="M553,11.62v.81a2.65,2.65,0,0,1-2.33-.66c0-.46.42-.49.62-.74A4.36,4.36,0,0,1,553,11.62Z" transform="translate(-475.34 -0.14)"/><path class="cls-65" d="M524,33a.73.73,0,0,1-.71.74.61.61,0,0,1-.65-.61.63.63,0,0,1,.67-.74C523.69,32.38,523.87,32.67,524,33Z" transform="translate(-475.34 -0.14)"/><path class="cls-66" d="M487.88,32.4a.64.64,0,0,1,.58.66.65.65,0,0,1-.74.67.63.63,0,0,1-.59-.8A.65.65,0,0,1,487.88,32.4Z" transform="translate(-475.34 -0.14)"/><path class="cls-67" d="M497.43,2.78a.59.59,0,0,1,0,.74h-1.74c0-.25,0-.5,0-.75Z" transform="translate(-475.34 -0.14)"/><path class="cls-68" d="M510.31,33a.64.64,0,0,1-.6.7.67.67,0,0,1-.75-.67.61.61,0,0,1,.6-.65A.65.65,0,0,1,510.31,33Z" transform="translate(-475.34 -0.14)"/><path class="cls-69" d="M562.44,24.12a3.57,3.57,0,0,1,.72-1.58A8,8,0,0,1,565,24.41c-.25-.11-.61-.15-.74-.35C563.6,23.07,563,23.48,562.44,24.12Z" transform="translate(-475.34 -0.14)"/><path class="cls-70" d="M480.49,30.91c-.43-.08-.66-.32-.67-.68a.59.59,0,0,1,.58-.67.63.63,0,0,1,.68.71C481.07,30.68,480.76,30.8,480.49,30.91Z" transform="translate(-475.34 -0.14)"/><path class="cls-71" d="M526.69,33.11c-.11.47-.36.68-.73.63a.63.63,0,0,1-.58-.81.61.61,0,0,1,.71-.53C526.58,32.45,526.67,32.8,526.69,33.11Z" transform="translate(-475.34 -0.14)"/><path class="cls-72" d="M520.58,32.4a.63.63,0,0,1,.62.74.58.58,0,0,1-.62.6.67.67,0,0,1,0-1.34Z" transform="translate(-475.34 -0.14)"/><path class="cls-73" d="M478.76,24.69c.12,0,.33.22.31.61a.56.56,0,0,1-.64.57c-.45,0-.72-.27-.65-.71S478.11,24.63,478.76,24.69Z" transform="translate(-475.34 -0.14)"/><path class="cls-74" d="M507,32.4a.63.63,0,0,1,.56.79.61.61,0,0,1-.7.55.62.62,0,0,1-.57-.8A.61.61,0,0,1,507,32.4Z" transform="translate(-475.34 -0.14)"/><path class="cls-75" d="M513,33c0,.44-.24.72-.67.73a.6.6,0,0,1-.63-.61.62.62,0,0,1,.65-.73C512.76,32.39,512.94,32.66,513,33Z" transform="translate(-475.34 -0.14)"/><path class="cls-76" d="M515.75,33.08c0,.38-.25.66-.62.66a.63.63,0,0,1-.65-.76.58.58,0,0,1,.68-.57A.63.63,0,0,1,515.75,33.08Z" transform="translate(-475.34 -0.14)"/><path class="cls-77" d="M490.51,32.4a.62.62,0,0,1,.65.68.59.59,0,0,1-.58.65.63.63,0,0,1-.71-.68A.62.62,0,0,1,490.51,32.4Z" transform="translate(-475.34 -0.14)"/><path class="cls-78" d="M485.71,33a.6.6,0,0,1-.67.57.56.56,0,0,1-.62-.62.65.65,0,1,1,1.29,0Z" transform="translate(-475.34 -0.14)"/><path class="cls-79" d="M517.79,33.76c-.34-.09-.61-.27-.6-.67a.61.61,0,0,1,.72-.67c.4,0,.56.33.54.7A.68.68,0,0,1,517.79,33.76Z" transform="translate(-475.34 -0.14)"/><path class="cls-80" d="M513.17,3.51h-1.71a.47.47,0,0,1,0-.73h1.72A.47.47,0,0,1,513.17,3.51Z" transform="translate(-475.34 -0.14)"/><path class="cls-81" d="M516,2.78v.73h-1.72a.47.47,0,0,1,0-.73Z" transform="translate(-475.34 -0.14)"/><path class="cls-82" d="M565,3.52l.27-.74h1.44a.47.47,0,0,1,0,.73Z" transform="translate(-475.34 -0.14)"/><path class="cls-83" d="M478.94,27.27c.4,0,.65.16.7.56a.62.62,0,0,1-1.23.13A.57.57,0,0,1,478.94,27.27Z" transform="translate(-475.34 -0.14)"/><path class="cls-84" d="M495.92,32.4c.4,0,.65.21.68.6a.6.6,0,0,1-.65.73.67.67,0,0,1,0-1.33Z" transform="translate(-475.34 -0.14)"/><path class="cls-85" d="M502.07,33.08c0,.38-.23.65-.61.65s-.67-.29-.63-.74a.58.58,0,0,1,.66-.58C501.9,32.43,502,32.72,502.07,33.08Z" transform="translate(-475.34 -0.14)"/><path class="cls-6" d="M566.73,13.28l-4-.85C564.12,12.45,565.56,12.23,566.73,13.28Z" transform="translate(-475.34 -0.14)"/><path class="cls-86" d="M483.14,32c-.06.41-.3.63-.68.58a.58.58,0,0,1-.53-.71.57.57,0,0,1,.67-.57A.62.62,0,0,1,483.14,32Z" transform="translate(-475.34 -0.14)"/><path class="cls-87" d="M548.7,24.31c.43-.57,1.49.31,1.7-.74a.79.79,0,0,1,.61-.27c.43.05.73.23.65.73-.18.31-.54.2-.79.34H549Z" transform="translate(-475.34 -0.14)"/><path class="cls-88" d="M566.73,3.51V2.78h1.43v.73Z" transform="translate(-475.34 -0.14)"/><path class="cls-89" d="M576.18,3.52h-1.43a.48.48,0,0,1,0-.73h1.43A.48.48,0,0,1,576.18,3.52Z" transform="translate(-475.34 -0.14)"/><path class="cls-90" d="M579.32,3.54l-1.42,0a.49.49,0,0,1,0-.74h1.44Z" transform="translate(-475.34 -0.14)"/><path class="cls-91" d="M511.45,2.78v.73H510V2.78Z" transform="translate(-475.34 -0.14)"/><path class="cls-92" d="M551.26,11c0,.4-.27.51-.59.56a.56.56,0,0,1-.84,0c0-.58-.49-.52-.88-.56A3.87,3.87,0,0,1,551.26,11Z" transform="translate(-475.34 -0.14)"/><path class="cls-93" d="M545.86,13.11c0-.3,0-.6,0-.89.34-.27.62-.65,1.13-.61a.55.55,0,0,0,.3.54C547.14,13,546.61,13.19,545.86,13.11Z" transform="translate(-475.34 -0.14)"/><path class="cls-94" d="M514.32,2.78v.73h-1.15V2.78Z" transform="translate(-475.34 -0.14)"/><path class="cls-95" d="M574.75,2.78v.73h-1.14c-.31-.39,0-.57.28-.73Z" transform="translate(-475.34 -0.14)"/><path class="cls-96" d="M573.89,2.78c-.1.24-.19.49-.28.73h-.86V2.78Z" transform="translate(-475.34 -0.14)"/><path class="cls-8" d="M555,24.12l1.72-1.42A1.64,1.64,0,0,1,555,24.12Z" transform="translate(-475.34 -0.14)"/><path class="cls-97" d="M577.9,2.78v.74H577a.49.49,0,0,1,0-.74Z" transform="translate(-475.34 -0.14)"/><path class="cls-98" d="M577,2.78v.74h-.86V2.78Z" transform="translate(-475.34 -0.14)"/><path class="cls-6" d="M562.15,12.43c-.6.55-1.34.17-2,.28C560.75,12.17,561.48,12.54,562.15,12.43Z" transform="translate(-475.34 -0.14)"/><path class="cls-6" d="M568.16,14.71A2.84,2.84,0,0,1,567,13.57,1.18,1.18,0,0,1,568.16,14.71Z" transform="translate(-475.34 -0.14)"/><path class="cls-8" d="M527.78,24.12c.49,0,.93.05,1.14.57A1.55,1.55,0,0,1,527.78,24.12Z" transform="translate(-475.34 -0.14)"/><path class="cls-6" d="M566.16,25h1.43A1,1,0,0,1,566.16,25Z" transform="translate(-475.34 -0.14)"/><path class="cls-10" d="M541.81,24.41a1.84,1.84,0,0,1,.86-.86A.8.8,0,0,1,541.81,24.41Z" transform="translate(-475.34 -0.14)"/><path class="cls-6" d="M573,24.69a1.82,1.82,0,0,1,.86-.85v.28A.86.86,0,0,1,573,24.69Z" transform="translate(-475.34 -0.14)"/><path class="cls-10" d="M538.66,23.55a1.76,1.76,0,0,1,.86.86A.81.81,0,0,1,538.66,23.55Z" transform="translate(-475.34 -0.14)"/><path class="cls-4" d="M505.72,13h.87a13.09,13.09,0,0,1,4,.09,3.36,3.36,0,0,1,1.54,1.22,3.45,3.45,0,0,1,.38.74,2.58,2.58,0,0,1,.13.6,2.69,2.69,0,0,1-1.12,2.7c-.93.57-.67,1-.13,1.57.19.2.35.44.54.65a6.23,6.23,0,0,1,.92,1.13c.31,1.54-.83,1-1.53,1.05-.88-.25-1.1-1.14-1.67-1.7a8.33,8.33,0,0,1-.66-.67c-.15-.19-.27-.41-.41-.6a.9.9,0,0,0-.75-.39,2.19,2.19,0,0,0-.88.12c-.62.87,0,1.94-.46,2.84a.7.7,0,0,1-.3.29,1,1,0,0,1-.65.06,1.2,1.2,0,0,1-.39-.2c-.53-1.37-.14-2.79-.23-4.18-.08-1.18-.05-2.37-.07-3.56a.74.74,0,0,1,0-.85C504.84,13.27,505.06,12.9,505.72,13Z" transform="translate(-475.34 -0.14)"/><path class="cls-4" d="M487.66,14.71c-.16-1.31.32-2,1.74-1.76a6.35,6.35,0,0,1,2.6-.22,7.19,7.19,0,0,1,1.92.57,7.36,7.36,0,0,1,1,.74,7.23,7.23,0,0,1,1,1.56,9.55,9.55,0,0,1,.34,1c.26,2.06-.11,3.89-1.89,5.22-1.57,1.12-3.37,1-5.16.95a4.34,4.34,0,0,1-.51,0,2,2,0,0,1-.77-.16.59.59,0,0,1-.38-.55C487.59,19.62,487.4,17.16,487.66,14.71Z" transform="translate(-475.34 -0.14)"/><path class="cls-4" d="M516.89,13l5.7.06a1,1,0,0,1,.32.61,1.3,1.3,0,0,1-.14.7,1.2,1.2,0,0,1-.82.46c-1.22.13-2.44,0-3.66.07-.72,1-.65,1.35.36,1.76h1.53a3.45,3.45,0,0,1,1.88.27c.6,1.29.56,1.39-.76,1.9-.79,0-1.59,0-2.38,0-.51,0-.95.14-1,.74a.82.82,0,0,0,.85,1c.39,0,.78,0,1.17,0,.94.06,1.93-.26,2.8.36.33,1.35.1,1.73-1.19,1.87a8.8,8.8,0,0,1-1.54,0c-.65,0-1.3,0-2,0-.23,0-.46,0-.69,0a2.53,2.53,0,0,1-.66-.11,2,2,0,0,1-.37-.22c-.55-1.27-.15-2.6-.23-3.9-.08-1.47-.05-2.94-.07-4.41C516.11,13.6,515.94,12.86,516.89,13Z" transform="translate(-475.34 -0.14)"/><path class="cls-99" d="M539.23,22.46l-.54-.11-.05-5.07a2.51,2.51,0,0,1-.35-1.06c.17-1.27-.57-1.51-1.61-1.42-1.24-.14-1.24-.89-.9-1.81l7.45,0a2.06,2.06,0,0,1,.13,1.36.9.9,0,0,1-.35.29,17.39,17.39,0,0,1-1.75.21c-.78.56-.4,1.38-.48,2.1a33.76,33.76,0,0,1-.12,5.13,1,1,0,0,1-.28.41,1,1,0,0,1-1.15-.06Z" transform="translate(-475.34 -0.14)"/><path class="cls-11" d="M487.66,14.71q0,3.33.07,6.65c0,.42-.23,1,.51,1.1,2,2.25,5.76,2.14,8.11-.24a4.24,4.24,0,0,0,.93-4.84c-.25-.55-.46-1.12-.72-1.67-.45-1.24-1.62-1.59-2.64-2.11L492.21,13a.7.7,0,0,1,.62-.26,6.69,6.69,0,0,1,3.44,1.09h0a4.64,4.64,0,0,1,2.1,2.57,6.25,6.25,0,0,1-3.53,8.27c-1.89.33-3.76.83-5.68.07-.77-.3-1.4-.71-1.51-1.52A28,28,0,0,1,487.66,14.71Z" transform="translate(-475.34 -0.14)"/><path class="cls-5" d="M499.38,13.58A.55.55,0,0,1,500,13c.36-.1.72-.19,1,.15a31.24,31.24,0,0,1,0,9.21,1.05,1.05,0,0,1-1,.41,1.43,1.43,0,0,1-.53-.17,1.33,1.33,0,0,1-.46-1.15c0-2.18-.13-4.36.07-6.54A2.83,2.83,0,0,1,499.38,13.58Z" transform="translate(-475.34 -0.14)"/><path class="cls-32" d="M494.84,24.69a6.54,6.54,0,0,0,3.61-5.1,8.41,8.41,0,0,0-.46-3.17c.37-.39.31-1.37,1.28-.93,0,1.66,0,3.32,0,5,0,2.89.37,3.38,3.12,4.06l.17.17a2.17,2.17,0,0,1-3.46-1.11c-.61-1.56-.61-1.56-1.81-.34C496.61,23.93,496,24.75,494.84,24.69Z" transform="translate(-475.34 -0.14)"/><path class="cls-32" d="M504.85,13.86v.85c-.53.68-.26,1.47-.25,2.2,0,2.31-.24,4.64.27,6.93q-.72-1-1.44,0l-.16-.2c-.07-1.93.06-3.86.08-5.79a26.8,26.8,0,0,1-.09-3.8c.06-.07.12-.13.17-.2C503.9,14.51,504.38,14.56,504.85,13.86Z" transform="translate(-475.34 -0.14)"/><path class="cls-100" d="M538.65,16.14v1.14c-.79-.64-1.95-.65-2.6-1.54a.52.52,0,0,0-.5,0c-1.28,1.59-3,.75-4.61,1-.08-.49.31-.51.6-.59a5.27,5.27,0,0,1,1.12-.07c1.9-.07,2.13-.46,1.34-2.31.37-.87,1,.31,1.46-.22a.61.61,0,0,1,.33-.53c-.36,1.07,0,1.6,1.14,1.48C537.39,15.14,538.16,15.5,538.65,16.14Z" transform="translate(-475.34 -0.14)"/><path class="cls-101" d="M540.09,22.45a.34.34,0,0,1,.22-.07c.56-.43.49-1.07.51-1.67,0-1.35,0-2.71,0-4.06a1.8,1.8,0,0,1,.39-1,1.59,1.59,0,0,1,.33-.25,2.51,2.51,0,0,0,1.38-.89l.29-.05c.21-.17,0-.54.34-.66l.51.1-.86,1.71a3.06,3.06,0,0,0-1.34,3.15,14.74,14.74,0,0,1-.15,3.51,1.07,1.07,0,0,1-1,1C540.28,23.21,539.84,23.09,540.09,22.45Z" transform="translate(-475.34 -0.14)"/><path class="cls-7" d="M499.14,15.28c-.33.44-.53,1-1.15,1.14a9.26,9.26,0,0,0-1.72-2.57c.23,0,.57,0,.68.1,1,1.25,1.82,1.09,2.43-.37v1.14C499.23,14.88,499.34,15.14,499.14,15.28Z" transform="translate(-475.34 -0.14)"/><path class="cls-10" d="M535.45,13.52c0,.32.29,1.05-.52.46a1.34,1.34,0,0,0-.85-.41c-.51.4-.79-.13-1.16-.28-.21,0-.44,0-.59-.19-.65-.67-1.61.14-2.28-.46A6.42,6.42,0,0,1,535.45,13.52Z" transform="translate(-475.34 -0.14)"/><path class="cls-10" d="M496.27,13.85c-1.14-.28-2.18-1-3.44-.86-1-.38-2.12.1-3.14-.28A7.32,7.32,0,0,1,496.27,13.85Z" transform="translate(-475.34 -0.14)"/><path class="cls-32" d="M500.82,13,500,13c.87-.5,1.73-.85,2.57.05l-.14.15a1.8,1.8,0,0,1-1.25.1A2.67,2.67,0,0,1,500.82,13Z" transform="translate(-475.34 -0.14)"/><path class="cls-11" d="M489.69,12.71c1,.15,2.14-.31,3.14.28l-.62,0L489.4,13Z" transform="translate(-475.34 -0.14)"/><path class="cls-100" d="M530.05,12.64c.74.28,1.65-.33,2.28.46a9.57,9.57,0,0,0-3.11-.15C529.43,12.66,529.76,12.72,530.05,12.64Z" transform="translate(-475.34 -0.14)"/><path class="cls-32" d="M503.43,23.84a.8.8,0,0,1-.86.85h0c-.07-.64.22-.92.86-.85Z" transform="translate(-475.34 -0.14)"/><path class="cls-32" d="M502.57,13a.8.8,0,0,1,.86.85h0c-.64.08-.93-.21-.86-.85Z" transform="translate(-475.34 -0.14)"/><path class="cls-102" d="M543.6,13.76c-.06.25-.07.52-.34.66l0-1.4C543.68,13.1,543.55,13.48,543.6,13.76Z" transform="translate(-475.34 -0.14)"/><path class="cls-32" d="M583,18.13c-.38,2.07-.95,2.65-2.83,2.89-1.49-.68-2-1.6-1.66-2.84a2.49,2.49,0,0,1,2.71-1.81A2,2,0,0,1,583,18.13Z" transform="translate(-475.34 -0.14)"/><path class="cls-103" d="M585.65,22.13l-.3.56a4.62,4.62,0,0,1-3.3,1.73,7.22,7.22,0,0,1-2.32,0,3.73,3.73,0,0,1-2.86-1.35.79.79,0,0,1,.09-.65c.68-.23,1.16.29,1.69.52a5,5,0,0,0,6-1.27,5.17,5.17,0,0,0-.52-6.37l-1.12-1.44c.5-.43.86-.07,1.25.19A5.6,5.6,0,0,1,585.65,22.13Z" transform="translate(-475.34 -0.14)"/><path class="cls-104" d="M584.17,15.3c1.42.64,2.11,2.77,1.65,4.76a5.1,5.1,0,0,1-7.68,3c-.36-.24-.73-.44-1.09-.66s-.44-.27-.28-.58l2.29.83a5.82,5.82,0,0,0,4.08-.4c1.68-.7,2.48-3.8,1.51-5.51Z" transform="translate(-475.34 -0.14)"/><path class="cls-105" d="M584.65,16.74c1.16,1.24,1,3.88-.41,5.2a4.68,4.68,0,0,1-5.18.71l2-.17a1.87,1.87,0,0,0,1.64-.67A5.36,5.36,0,0,0,584.65,16.74Z" transform="translate(-475.34 -0.14)"/><path class="cls-106" d="M585.65,22.13a8,8,0,0,0,.86-4c-.18-1.9-1.76-3.94-3.46-4.27a6.67,6.67,0,0,0-4.57-.92,6.94,6.94,0,0,1,6.71,1.51,5.78,5.78,0,0,1,1.62,6.21A1.94,1.94,0,0,1,585.65,22.13Z" transform="translate(-475.34 -0.14)"/><path class="cls-107" d="M583,18.13c-.62-.87-1.27-1.66-2.54-1.42a2.06,2.06,0,0,0-1.58,1.47c-.52,1.34.39,2.1,1.29,2.84a2,2,0,0,1-1.44-.07,3.21,3.21,0,0,1-.37-4.18,3,3,0,0,1,4.15-.66C583.25,16.65,583.12,17.4,583,18.13Z" transform="translate(-475.34 -0.14)"/><path class="cls-108" d="M582.2,24.13c1.28,0,2-1.09,3.15-1.44-.69,1.54-3.34,2.63-5.32,2.19a7.62,7.62,0,0,1-3.85-1.9c-.34-1.09-1.26-2-1.1-3.24.18.32.36.63.53,1A12.36,12.36,0,0,1,577,23a3.28,3.28,0,0,0,2.57,1.15A5.16,5.16,0,0,0,582.2,24.13Z" transform="translate(-475.34 -0.14)"/><path class="cls-109" d="M577.32,20.16a2.83,2.83,0,0,1-.88-2.6c.91-2.39,1.75-3,4.31-3.09a1.23,1.23,0,0,1,1,.48c-.42.61-1.25.25-1.72.75a1.92,1.92,0,0,1-.62.18,2.77,2.77,0,0,0-1.69,2.83A1.64,1.64,0,0,1,577.32,20.16Z" transform="translate(-475.34 -0.14)"/><path class="cls-110" d="M579.34,15.57h.56c.67-.68,1.44-.46,2.21-.27.18.26.5.44.43.82-.72.12-1.35-.38-2.09-.22-2.2.47-2.94,2.63-1.69,5.06a1.41,1.41,0,0,1-1.14-.54C577.17,18.44,577.44,16.72,579.34,15.57Z" transform="translate(-475.34 -0.14)"/><path class="cls-111" d="M580.75,14.47a5.74,5.74,0,0,0-4.31,3.09C576.52,15.08,578.24,13.86,580.75,14.47Z" transform="translate(-475.34 -0.14)"/><path class="cls-112" d="M579.34,15.57a4.88,4.88,0,0,0-1.72,4.84l-.3-.25c0-1.53-.31-3.17,1.25-4.27A1.32,1.32,0,0,1,579.34,15.57Z" transform="translate(-475.34 -0.14)"/><path class="cls-113" d="M577,23c-.55-.71-1.33-1.29-1.43-2.29l1.16,1.13c.09.19.18.39.28.58Z" transform="translate(-475.34 -0.14)"/><path class="cls-104" d="M582.72,21.81c-.35.69-.85,1.05-1.64.67Z" transform="translate(-475.34 -0.14)"/><path class="cls-111" d="M582.11,15.29a4.29,4.29,0,0,0-2.21.27c.32-1.05,1.24-.34,1.82-.61C581.91,15,582.09,15.06,582.11,15.29Z" transform="translate(-475.34 -0.14)"/><path class="cls-113" d="M565.91,14.7l-.64-.83a.69.69,0,0,1,.89,0h0a3.62,3.62,0,0,1,1,5.67c-.72.88-.18,1.45.35,2.07a4,4,0,0,1,.35.91,1.48,1.48,0,0,1-.64,1.58,1.39,1.39,0,0,1-1.57-.15,2.32,2.32,0,0,1-1.1-1.21.56.56,0,0,1,.2-.41c.66.08,1.34.43,1.94-.16-1-1.17-1.39-2.29-.26-3.72S566.72,15.86,565.91,14.7Z" transform="translate(-475.34 -0.14)"/><path class="cls-114" d="M565.91,14.7c1.68,1.44,1.94,2.75.54,4.37-1.08,1.26,0,2.07.26,3.08a41,41,0,0,1-2.8-3.33A3,3,0,0,0,565.91,14.7Z" transform="translate(-475.34 -0.14)"/><path class="cls-115" d="M564.72,22.7a.83.83,0,0,0,.07.13c.59.65,1.17,1.58,2.17,1.1s.52-1.53.34-2.37a.38.38,0,0,1,0-.57c.4.15.53.52.72.84.44.76.7,1.55-.08,2.19a1.9,1.9,0,0,1-2.4.05,13.92,13.92,0,0,1-1.88-1.73c-.51-.53-.88-.52-1.13.2-.32,1-.58,2-1.94,1.87s-1.52-1.11-1.87-2l.56.09c.25.22.46.5.71.69.67.51,1.23.37,1.59-.42s.28-1.65,1.3-1.63S564.26,22,564.72,22.7Z" transform="translate(-475.34 -0.14)"/><path class="cls-116" d="M564.72,22.7a3.72,3.72,0,0,1-.45-.33c-1.6-1.48-1.63-1.49-2.33.54a1.15,1.15,0,0,1-1.2.94c-1,0-1.28-.61-1.46-1.39h.57c1,.39,1.18-.38,1.44-1.05s.68-1.53,1.76-1a5.29,5.29,0,0,1,1.72,1.92Z" transform="translate(-475.34 -0.14)"/><path class="cls-117" d="M561.59,17.51H561A1.34,1.34,0,0,1,560.9,16c.46-.59.12-.66-.4-.61a.61.61,0,0,1-.07-.87c.81,0,1.62-.09,2.42,0s1.63.29,1.58,1.4C563.16,15.85,562,16.12,561.59,17.51Z" transform="translate(-475.34 -0.14)"/><path class="cls-118" d="M563.05,20.39c-1,0-1.38.49-1.51,1.46-.16,1.15-.73,1.3-1.69.6a.37.37,0,0,1,.23-.05,2.81,2.81,0,0,1,2.39-2.86A.83.83,0,0,1,563.05,20.39Z" transform="translate(-475.34 -0.14)"/><path class="cls-119" d="M561.59,17.51c.13-1.8,1-2.29,2.84-1.66,0,.39.16.8-.29,1a1.33,1.33,0,0,0-1.7.62Z" transform="translate(-475.34 -0.14)"/><path class="cls-120" d="M562.47,19.54c-.9.87-2.17,1.43-2.39,2.86,0-.84,0-1.67.1-2.5,0-.38-.16-.91.53-.89.29.39.58.37.87,0C562.05,18.89,562.27,19.2,562.47,19.54Z" transform="translate(-475.34 -0.14)"/><path class="cls-121" d="M561.29,15.85a2.76,2.76,0,0,0-.28,1.67c-.32,0-.8.15-.79-.33,0-.91-.33-1.85.21-2.72,0,.3,0,.62.29.81S561.11,15.65,561.29,15.85Z" transform="translate(-475.34 -0.14)"/><path class="cls-122" d="M562.44,17.52c0-.39-.16-.94.42-1s1.06-.32,1.28.42A2,2,0,0,1,562.44,17.52Z" transform="translate(-475.34 -0.14)"/><path class="cls-123" d="M561.58,19c0,.41,0,1-.49,1s-.28-.62-.38-1Z" transform="translate(-475.34 -0.14)"/><path class="cls-115" d="M566.16,13.85l-.89,0-.84-.58A1.89,1.89,0,0,1,566.16,13.85Z" transform="translate(-475.34 -0.14)"/><path class="cls-115" d="M505.15,22.45h.29a2.83,2.83,0,0,1,.59.38c1.06.89,1.43.81,1.9-.45.22-.57.33-1.21,1.08-1.35s1.21.47,1.56,1A3.79,3.79,0,0,0,512,23.31c.83.44,1.36.09,1.39-.8a3.51,3.51,0,0,1-.18-4.07c.87-1.52.31-2.89-1.24-4l-1.24-1.12a.76.76,0,0,1,1-.06h0a6.16,6.16,0,0,1,1.15.57h0c2,1.65,2.35,3.1,1.14,5.42-1,.83-.39,1.65.08,2.39s.87,1.71,0,2.41a2.07,2.07,0,0,1-2.64-.11A9.74,9.74,0,0,1,510,22.49c-.76-.85-1.17-.6-1.37.39a1.63,1.63,0,0,1-2,1.5A1.61,1.61,0,0,1,505.15,22.45Z" transform="translate(-475.34 -0.14)"/><path class="cls-106" d="M516.32,22.45h.28A6.12,6.12,0,0,0,523,23.68c1.18-.49.3-1.39.41-2.09.11-.15.22-.16.35,0,1.26.63.82,1.62.57,2.57-2,1-4.16.57-6.24.48A1.84,1.84,0,0,1,516.32,22.45Z" transform="translate(-475.34 -0.14)"/><path class="cls-124" d="M514,19.27a4.35,4.35,0,0,0-1.14-5.42A3.46,3.46,0,0,1,514,19.27Z" transform="translate(-475.34 -0.14)"/><path class="cls-124" d="M511.74,13.28l-1,.06a17.28,17.28,0,0,0-4.18-.39C508.34,12.62,510.08,12.36,511.74,13.28Z" transform="translate(-475.34 -0.14)"/><path class="cls-124" d="M512.89,13.85a1.55,1.55,0,0,1-1.15-.57A1,1,0,0,1,512.89,13.85Z" transform="translate(-475.34 -0.14)"/><path class="cls-125" d="M533.27,21.54c.77,0,1.34.34,1.35,1.15s-.56,1.17-1.22,1.4a5.66,5.66,0,0,1-7.06-3.37l1.17,1.08a6.93,6.93,0,0,0,4.25,1.65c.85,0,1.66-.16,1.37-1.36Z" transform="translate(-475.34 -0.14)"/><path class="cls-114" d="M527.17,17.23a3.32,3.32,0,0,1,4-2.94c.7.1,1.38.28,2.06.42.41.59.4.73-.26.87a10,10,0,0,1-2.61.39c-.69-.65-1.18-.3-1.76.25s-.58,1.2-1.33,1.34c0,0-.07,0-.1-.09A.2.2,0,0,1,527.17,17.23Z" transform="translate(-475.34 -0.14)"/><path class="cls-126" d="M532.92,13.29l1.16.28c.36.64,1.23,1.1.68,2.07s-1.3.75-2.1.79c-.58,0-1.22-.23-1.73.28-.62.33-1.36.54-1.43,1.42a2,2,0,0,0,.86,2.57h0a.25.25,0,0,1,0,.36l-1.11-.13c-1.47-2.59-.5-4.68,2.42-5.24a7.9,7.9,0,0,1,.85-.12c1.67-.12,1.72-.23.75-1.72Z" transform="translate(-475.34 -0.14)"/><path class="cls-127" d="M533.24,13.85a1.16,1.16,0,0,1,1,1.42c-.13.76-.87.58-1.41.58a4.35,4.35,0,0,0-2.92.81c-1.58,1.25-1,2.77-.72,4.27-.32,0-.43-.24-.63-.41a3,3,0,0,1-.31-2.89,2.59,2.59,0,0,1,.17-.38,5.56,5.56,0,0,1,1.42-1.36l.2,0a10.48,10.48,0,0,1,2.83-.58c.36,0,.72-.1.31-.56Z" transform="translate(-475.34 -0.14)"/><path class="cls-128" d="M527.17,17.23c.64-.64,1.23-1.33,1.91-1.92s1-.25,1,.54h0a4.41,4.41,0,0,0-1.43,1.42h0c-.7,1-.32,2-.28,3.1A2.73,2.73,0,0,1,527.17,17.23Z" transform="translate(-475.34 -0.14)"/><path class="cls-129" d="M533.13,22.09c1,.65.85,1.17-.21,1.5a4.89,4.89,0,0,1-5.41-1.79l1.41.64a8,8,0,0,0,2.75.49c.49,0,0-.33.15-.45Z" transform="translate(-475.34 -0.14)"/><path class="cls-130" d="M531.82,22.48c.2.11.54.2.57.35.09.4-.3.4-.56.42a3.51,3.51,0,0,1-2.91-.81Z" transform="translate(-475.34 -0.14)"/><path class="cls-131" d="M528.36,20.38c-.28-1.07-.67-2.15.28-3.1a7.09,7.09,0,0,0,0,3.24A.43.43,0,0,1,528.36,20.38Z" transform="translate(-475.34 -0.14)"/><path class="cls-132" d="M530.33,21.06l0-.36,1.22.31A1.16,1.16,0,0,1,530.33,21.06Z" transform="translate(-475.34 -0.14)"/><path class="cls-115" d="M567.3,21v.57c-.87-.65-1-1.27-.26-2.23,1.35-1.67,1.15-3.23-.35-4.81a6.78,6.78,0,0,1-.53-.67,3.46,3.46,0,0,1,1.65,5.1C567.46,19.57,566.79,20.14,567.3,21Z" transform="translate(-475.34 -0.14)"/><path class="cls-106" d="M523.77,21.55h-.29a.44.44,0,0,1-.54.1c-.23-.15-.09-.52-.36-.65l-2.81-.07c-.36-.69.23-.8.63-1a5.28,5.28,0,0,1,1.26-.22c1.23-.25,1.45-.67.87-1.73a10.42,10.42,0,0,0-.49-1l-2,0c-.35-.68.23-.8.62-1a2.75,2.75,0,0,1,1.11-.17c.67,0,1.4,0,1.7-.72s-.54-1-.81-1.5l-.08-.55c2.27.68,2.6,1.63,1.09,3.34-.45.51-.42.81,0,1.31a1.69,1.69,0,0,1,0,2.32C523.1,20.64,523.4,21.05,523.77,21.55Z" transform="translate(-475.34 -0.14)"/><path class="cls-117" d="M571.31,22.41l0-9.37c.28.07.3.3.35.52s.21.27.31.41a4.59,4.59,0,0,1,1.22,3.64c-.07,1.28,0,2.56,0,3.84a1.6,1.6,0,0,1-.81,1.56C571.8,23.24,571.12,23.49,571.31,22.41Z" transform="translate(-475.34 -0.14)"/><path class="cls-133" d="M571.61,13.85a2.81,2.81,0,0,0,0-.29c1.36-.1,1.93.71,2,1.88.07,2.26.06,4.53,0,6.8a1.69,1.69,0,0,1-1.66,1.9c-1.26.09-1.7-.57-1.76-1.68h.29c.58.31.91,1.29,1.78.81a2,2,0,0,0,.81-2c0-1.42-.07-2.85,0-4.26A3.16,3.16,0,0,0,571.61,13.85Z" transform="translate(-475.34 -0.14)"/><path class="cls-134" d="M571.61,13.85c1.25,0,1.65.87,1.69,1.88.06,2.08,0,4.16,0,6.24,0,.85-.34,1.68-1.28,1.81s-1.34-.53-1.57-1.32l.86-.05c.63,1.23,1.25.23,1.29-.19a26.22,26.22,0,0,0-.05-6.74C572.44,14.83,571.42,14.68,571.61,13.85Z" transform="translate(-475.34 -0.14)"/><path class="cls-132" d="M530.36,20.7c-1.36-.5-1.36-1.45-.86-2.57A3.24,3.24,0,0,0,530.36,20.7Z" transform="translate(-475.34 -0.14)"/><path class="cls-2" d="M545.86,13.11l1.42-1,2.55-.6.84,0,2.3.84,1.43,1.21a6.15,6.15,0,0,1,.23,7.6,2.53,2.53,0,0,1-1,1.34c-.33.21-.64.45-1,.65-.53.44-1.19.08-1.76.28l-.48.06a6.45,6.45,0,0,1-3.15-.59l-2-1.53a5.73,5.73,0,0,1-.67-6.74C544.74,13.94,545.56,13.72,545.86,13.11Z" transform="translate(-475.34 -0.14)"/><path class="cls-135" d="M550.87,24.37l.67-.3a2.48,2.48,0,0,1,1.06-.68,2.7,2.7,0,0,0,1.11-.64c.31-.22.57-.55,1-.5a6.24,6.24,0,0,0,1.86-5.79c1.53,2,.61,5.82-1.72,7.15A6.19,6.19,0,0,1,550.87,24.37Z" transform="translate(-475.34 -0.14)"/><path class="cls-136" d="M554.72,22.25a1.48,1.48,0,0,1-.86.77c-.53,0-.48-.33-.34-.68l1.11-1.1Z" transform="translate(-475.34 -0.14)"/><path class="cls-137" d="M539.23,22.46h.3c.48.29.75,1.12,1.51.7s.64-1,.64-1.63c0-1.27,0-2.55,0-3.83,0-1,.34-1.77,1.52-1.84,0,.94,0,1.87,0,2.81-.52-.6,0-1.4-.39-2-.59.29-.39.82-.4,1.26a29.46,29.46,0,0,1-.25,4.39c-.17.95-.47,1.74-1.46,1.77S539.26,23.41,539.23,22.46Z" transform="translate(-475.34 -0.14)"/><path class="cls-6" d="M557,32.87c.15-.36-.36-1.1.59-1.08a1,1,0,0,1,1.1,1,1,1,0,0,1-1,1.12C556.8,34,557,33.38,557,32.87Z" transform="translate(-475.34 -0.14)"/><path class="cls-124" d="M549.55,32.75c0,.8-.39,1.28-1.13,1.28a1.13,1.13,0,1,1,1.13-1.28Z" transform="translate(-475.34 -0.14)"/><path class="cls-11" d="M533.1,32.43a.87.87,0,0,1-1,.33c-.4-.08-.34-.44-.27-.68.12-.47.53-.28.83-.25A.47.47,0,0,1,533.1,32.43Z" transform="translate(-475.34 -0.14)"/><path class="cls-119" d="M581.72,32c.22.55.72.88.34,1.36a.42.42,0,0,1-.62,0C581,32.82,581.58,32.52,581.72,32Z" transform="translate(-475.34 -0.14)"/><path class="cls-138" d="M543.2,15.86a2.07,2.07,0,0,0-1.4,2.24q.06,1.92,0,3.84c0,.68-.17,1.38-1,1.57s-1-.53-1.31-1.05h.56a.54.54,0,0,0,.83.45,1.05,1.05,0,0,0,.59-1c0-1.37,0-2.73,0-4.1a1.88,1.88,0,0,1,1.73-2.18Z" transform="translate(-475.34 -0.14)"/><path class="cls-139" d="M552.68,23.56c-.37.2-.64.61-1.14.51,0-.42-.32-.51-.66-.56l1.78-.63A.46.46,0,0,1,552.68,23.56Z" transform="translate(-475.34 -0.14)"/><path class="cls-140" d="M512,14.46a2.64,2.64,0,0,1,2,3.18,2.1,2.1,0,0,1-.32.92c-1.14,1.33-.72,2.59.11,3.85.19.64.06,1.16-.67,1.26a1.49,1.49,0,0,1-1.91-1.21,8,8,0,0,1,1,0c.83.08.66-.33.41-.8a2.46,2.46,0,0,1,.11-3.13c.85-1.22.46-2.41-.43-3.49C512,14.9,512,14.67,512,14.46Z" transform="translate(-475.34 -0.14)"/><path class="cls-134" d="M511.17,22.46c1.35,1.56,2,1.55,2.58-.05.46.49.4,1-.15,1.28a1.75,1.75,0,0,1-2-.18c-.55-.51-1-1.15-1.48-1.69-.85-.89-1.47-.73-1.79.45-.19.68-.24,1.43-1.15,1.56s-1.36-.67-1.74-1.37H506c1,.75,1.42.22,1.67-.72.3-1.1.89-1.63,2.06-1Z" transform="translate(-475.34 -0.14)"/><path class="cls-141" d="M511.74,20.7l-1.64-1.86a3.21,3.21,0,0,0,2.26-3.27,1.83,1.83,0,0,1,.68,2.68A11.08,11.08,0,0,0,511.74,20.7Z" transform="translate(-475.34 -0.14)"/><path class="cls-114" d="M507.74,17.51h-.58c-.4-.44-.16-.9,0-1.35s.89-1.07-.36-1c-.28-.15-.41-.34-.18-.63a20,20,0,0,1,2.56,0c1.13.13,1.89.67,1.48,2C509.18,15.62,509.07,15.67,507.74,17.51Z" transform="translate(-475.34 -0.14)"/><path class="cls-131" d="M511.74,20.7a2.66,2.66,0,0,1,.76-2.06,1.93,1.93,0,0,0-.14-3.07l-.12-.55c1.25.83,1.79,2.47.91,3.47a3.11,3.11,0,0,0-.59,3.15A2.2,2.2,0,0,1,511.74,20.7Z" transform="translate(-475.34 -0.14)"/><path class="cls-110" d="M509.73,20.7c-1-.15-1.64.18-1.76,1.3-.06.55-.28,1.15-1,1.24a.81.81,0,0,1-1-.78l.29-.05.3-.28c.51-.34.6-.95.94-1.4s.83-1.09,1.64-.6Z" transform="translate(-475.34 -0.14)"/><path class="cls-142" d="M507.74,17.51c.06-1,.36-1.75,1.44-1.93.68-.11,1.33,0,1.45.88l-.05,0c-.63.42-1.51.38-2,1.09Z" transform="translate(-475.34 -0.14)"/><path class="cls-143" d="M506.59,22.42h-.3c0-.86,0-1.71.09-2.56,0-.36-.11-.81.49-.84.38.53.77.43,1.15,0a.64.64,0,0,1,.78.57c-.69.41-1,1.33-1.94,1.42-.16,0,0,.17,0,.25A1.33,1.33,0,0,1,506.59,22.42Z" transform="translate(-475.34 -0.14)"/><path class="cls-105" d="M506.59,22.42c-.3-1.75,1.18-2.13,2.21-2.85l.37.56c-.94-.08-1.35.54-1.62,1.27C507.36,21.89,507.26,22.4,506.59,22.42Z" transform="translate(-475.34 -0.14)"/><path class="cls-144" d="M507.44,16.14l-.28,1.37c-.34,0-.76.09-.74-.38,0-.87-.29-1.78.17-2.62a.51.51,0,0,0,.28.49C507.26,15.28,507.09,15.84,507.44,16.14Z" transform="translate(-475.34 -0.14)"/><path class="cls-100" d="M508.6,17.51c0-1.57,1.2-1,2-1.09A1.86,1.86,0,0,1,508.6,17.51Z" transform="translate(-475.34 -0.14)"/><path class="cls-145" d="M508,19c0,.51-.32,1-.77,1-.61,0-.29-.62-.38-1Z" transform="translate(-475.34 -0.14)"/><path class="cls-11" d="M494.3,18.47a2.31,2.31,0,0,1-1.92,2.29c-1,.28-1.32-.2-1.38-1.06a13.53,13.53,0,0,1,0-1.56c.08-1.36.69-2.05,1.71-2C493.88,16.27,494.44,17.07,494.3,18.47Z" transform="translate(-475.34 -0.14)"/><path class="cls-146" d="M496.56,22.42c-1.36,1.67-5.19,2.58-7.15,1.66a1.68,1.68,0,0,1-1.17-1.62h.58a5.41,5.41,0,0,0,6.66-.27,5,5,0,0,0,.18-6.6l-1-1.4c1.05-.06,1.59.66,2.13,1.38a3.22,3.22,0,0,1,.59,1.69c.89,1.52.38,2.95-.29,4.36C497,21.91,496.72,22.13,496.56,22.42Z" transform="translate(-475.34 -0.14)"/><path class="cls-112" d="M489.41,14.51c1.76-.08,3.63-.49,4.63,1.6-.39.29-.8.11-1.22.07-1.21-.11-1.72.32-1.86,1.55a21.49,21.49,0,0,1-.12,3.21h-.59c-1-.58-.61-1.56-.67-2.4a5.22,5.22,0,0,1,.28-2.07,1.86,1.86,0,0,1,.24-.62c.51-.73-.05-.68-.5-.71C489.31,15,489.17,14.81,489.41,14.51Z" transform="translate(-475.34 -0.14)"/><path class="cls-147" d="M490.84,20.94a6.39,6.39,0,0,1-.19-3.72c.23-1.46,1.26-1.73,3.39-1.11a2.77,2.77,0,0,1,.26,2.36,4.28,4.28,0,0,0-.14-1,1.73,1.73,0,0,0-1.86-1c-.7,0-.92.7-.9,1.38s0,1.22,0,1.83.31,1,1,1C491.9,21.15,491.36,21,490.84,20.94Z" transform="translate(-475.34 -0.14)"/><path class="cls-117" d="M494.29,21.57a5.21,5.21,0,0,0,1.6-5.14c.39-.19.47.12.59.36a4.79,4.79,0,0,1-1.1,5.63,2.14,2.14,0,0,1-.72.47c-.45.12-1,.24-1.21-.25C493.21,22,494.16,22.05,494.29,21.57Z" transform="translate(-475.34 -0.14)"/><path class="cls-144" d="M490.26,16.14a9.41,9.41,0,0,0,0,4.8c-.45,0-1.07.22-1-.54.08-2-.3-3.94.19-5.89l.28.49C490.07,15.28,489.9,15.84,490.26,16.14Z" transform="translate(-475.34 -0.14)"/><path class="cls-111" d="M494.29,21.57c.26.65-.62.43-.61,1,.16.27.56,0,.88.11.07.3-.15.42-.36.5a10.3,10.3,0,0,1-3.86.39,1.22,1.22,0,0,1-1.23-1.14C490.89,22.43,492.68,22.53,494.29,21.57Z" transform="translate(-475.34 -0.14)"/><path class="cls-111" d="M495.13,22.41c1.92-2.4,2.12-4,.76-6-.29-.22-.17-.56-.23-.84A4,4,0,0,1,497,20.3a3.63,3.63,0,0,1-1.3,2.11A.38.38,0,0,1,495.13,22.41Z" transform="translate(-475.34 -0.14)"/><path class="cls-148" d="M495.13,22.41h.57C494.08,24,492.07,24,490,23.69a1.39,1.39,0,0,1-1.22-1.23h.29a1.85,1.85,0,0,0,2.26.85c1-.26,2.26.35,3.19-.6Z" transform="translate(-475.34 -0.14)"/><path class="cls-149" d="M496.84,15.57a8.12,8.12,0,0,0-2.13-1.38l-.79-.59C495.17,13.85,496.42,14.1,496.84,15.57Z" transform="translate(-475.34 -0.14)"/><path class="cls-112" d="M522.58,21c.28.08.31.31.35.54,1,1.54.85,1.87-1,2.36a7.06,7.06,0,0,1-3.79-.08c-.69-.19-1.26-.49-1-1.37h.59a2,2,0,0,0,2,0,9,9,0,0,1,1.55,0C522.49,22.59,522.81,22.07,522.58,21Z" transform="translate(-475.34 -0.14)"/><path class="cls-150" d="M522,17c.18.21.36.41.52.63.33.47,1.15.76.81,1.48a2,2,0,0,1-2,1c-.65,0-1.36-.06-1.59.8h-1.12c-.14-1.19.76-1.59,1.58-2.07.31-.19.8.06,1-.43C522.44,18.51,522.24,17.75,522,17Z" transform="translate(-475.34 -0.14)"/><path class="cls-151" d="M521.2,18.43c0,.19.76.5-.06.55a2.81,2.81,0,0,0-2.49,1.95c-1.09.3-1.17-.36-1.12-1.16s-.18-1.48,1-1.39C519.41,18.45,520.31,18.42,521.2,18.43Z" transform="translate(-475.34 -0.14)"/><path class="cls-116" d="M517.17,22.46c.24,1.13,1.21,1.21,2.08,1.35a8.08,8.08,0,0,0,1.84,0c2-.16,2.18-.4,1.84-2.27h.55c1,1.63.72,2.24-1.19,2.6a10.91,10.91,0,0,1-3.78,0,2,2,0,0,1-1.91-1.74Z" transform="translate(-475.34 -0.14)"/><path class="cls-146" d="M522.67,13.56c.78.15,1.45.56,1.29,1.4a1.56,1.56,0,0,1-1.71,1.19c-.8,0-1.77-.3-2.2.8h-.85c-.36-1.14.6-1.28,1.27-1.59a3.43,3.43,0,0,1,1.39-.15c.76,0,1-.34.81-1.06Z" transform="translate(-475.34 -0.14)"/><path class="cls-152" d="M522.67,14.14c.39.25.66.57.39,1s-.72.38-1.14.39c-1.13,0-2.32-.08-2.72,1.37h-.58a.84.84,0,0,1-.24-.81,1.24,1.24,0,0,1,.65-.8c.91-.64,2.18,0,3-.87C522.29,14.41,522.57,14.43,522.67,14.14Z" transform="translate(-475.34 -0.14)"/><path class="cls-112" d="M522.06,14.47c.32.73-.19.82-.68.8a6.71,6.71,0,0,0-2.19.3c-.29-.54-.82-.36-1.26-.44-.28-.15-.4-.34-.17-.63Z" transform="translate(-475.34 -0.14)"/><path class="cls-128" d="M517.76,14.5l.28.5c.39.28.22.84.57,1.14V17C517.41,16.84,517.26,16.43,517.76,14.5Z" transform="translate(-475.34 -0.14)"/><path class="cls-153" d="M519.76,22.46c-.67.93-1.33.7-2,0Z" transform="translate(-475.34 -0.14)"/><path class="cls-111" d="M541.24,16.42c0,1.5,0,3,0,4.5,0,.65,0,1.37-.92,1.46l.09-5.67C540.63,16.48,540.85,16.21,541.24,16.42Z" transform="translate(-475.34 -0.14)"/><path class="cls-154" d="M538.65,16.14c-.76-.37-1.79-.45-1.73-1.67C538.73,14.38,538.73,14.38,538.65,16.14Z" transform="translate(-475.34 -0.14)"/><path class="cls-155" d="M541.24,16.42l-.84.29c.13-.76-.57-1.73.57-2.23a2.34,2.34,0,0,1,.49.27c.21.26.36.52.07.82Z" transform="translate(-475.34 -0.14)"/><path class="cls-111" d="M541.24,14.71l-.27-.23h2c.28,1.06-.63.88-1.16,1.1A.9.9,0,0,0,541.24,14.71Z" transform="translate(-475.34 -0.14)"/><path class="cls-116" d="M496.56,22.42c.8-1.64,1.68-3.26.87-5.16C498.56,18.4,498.11,21.09,496.56,22.42Z" transform="translate(-475.34 -0.14)"/><path class="cls-117" d="M500.82,13a.82.82,0,0,1,.27,0,1.13,1.13,0,0,1,.4.58c0,.16.08.31.13.47a3.46,3.46,0,0,1,1.07,2.81c-.05,1.51,0,3,0,4.53a2.15,2.15,0,0,1-.47,1.46.94.94,0,0,1-1,.3c-.36-.12-.55-.36-.31-.75Z" transform="translate(-475.34 -0.14)"/><path class="cls-11" d="M501.16,13.56c0-.18-.05-.36-.07-.54l1.48,0a1.82,1.82,0,0,0,.86.85,38,38,0,0,1,0,10,1.82,1.82,0,0,0-.86.85c-2.86,0-3.43-.58-3.43-3.47V15.28l.24-.56c0,2.15,0,4.3.06,6.46,0,.43-.25.94.27,1.28a2.36,2.36,0,0,1,.45.55,1.2,1.2,0,0,0,1.41.69,1.24,1.24,0,0,0,1.1-1.16,58.94,58.94,0,0,0,0-7.4C502.63,14.25,501.73,14,501.16,13.56Z" transform="translate(-475.34 -0.14)"/><path class="cls-103" d="M500.86,22.42c.69,1.13,1.28.49,1.32-.27.12-2.2,0-4.42,0-6.64,0-.77-1.28-.74-1.06-1.66,1.12,0,1.78.45,1.82,1.58.07,2.28.08,4.56,0,6.84,0,.86-.48,1.71-1.57,1.69-.9,0-1.52-.46-1.41-1.5Z" transform="translate(-475.34 -0.14)"/><path class="cls-133" d="M500,22.46c.23.79.7,1.45,1.58,1.32s1.26-1,1.27-1.81c.05-2.08.06-4.16,0-6.24,0-1-.44-1.86-1.68-1.88v-.29c1.36-.1,1.93.71,2,1.88q.11,3.39,0,6.8a1.7,1.7,0,0,1-1.67,1.9c-1.26.09-1.7-.57-1.75-1.68Z" transform="translate(-475.34 -0.14)"/><path class="cls-121" d="M541.24,14.71c.7-.05,1,.18.57.86h-.28C541.44,15.29,541.34,15,541.24,14.71Z" transform="translate(-475.34 -0.14)"/><path class="cls-113" d="M582.2,24.13a2.68,2.68,0,0,1-2.59,0Z" transform="translate(-475.34 -0.14)"/><path class="cls-156" d="M561.29,15.85a.52.52,0,0,1-.57-.57c.18-.33.42-.7.83-.38C562.13,15.35,561.43,15.55,561.29,15.85Z" transform="translate(-475.34 -0.14)"/><path class="cls-131" d="M528.64,17.28a1.64,1.64,0,0,1,1.43-1.42A4.61,4.61,0,0,1,528.64,17.28Z" transform="translate(-475.34 -0.14)"/><path class="cls-157" d="M548.12,13a1.49,1.49,0,0,1,1.39,2.26c-.59,1.25.4,2.14.93,3.12a1,1,0,0,1,.09.82.37.37,0,0,1-.5.11c-1.11-.59-2.2-3.19-1.77-4.41a1.42,1.42,0,0,0-.27-1.32A.55.55,0,0,1,548.12,13Z" transform="translate(-475.34 -0.14)"/><path class="cls-158" d="M547.25,17.87c-1.32-2.15-1.31-3.31,0-4.51a1,1,0,0,1,.29.77,4.86,4.86,0,0,0,.14,2.59A1.61,1.61,0,0,1,547.25,17.87Z" transform="translate(-475.34 -0.14)"/><path class="cls-159" d="M552.12,19a1.68,1.68,0,0,1,1.4,1.71c.1.86-.66,1.15-1.37,1.36a.66.66,0,0,1-.23-.72,1.67,1.67,0,0,0,0-1.61A.73.73,0,0,1,552.12,19Z" transform="translate(-475.34 -0.14)"/><path class="cls-160" d="M550.67,22.16c-1.16-.11-1.52-1.09-2-1.9-.06-.28-.23-.56-.1-.86.51-.47.78,0,1,.32.4.64,1,1.16,1.3,1.83A.6.6,0,0,1,550.67,22.16Z" transform="translate(-475.34 -0.14)"/><path class="cls-161" d="M552.12,19l0,.77c-1.09.83-1.41.76-1.73-.42,0-.34,0-.69.08-1C550.89,18.85,551.31,19.42,552.12,19Z" transform="translate(-475.34 -0.14)"/><path class="cls-162" d="M547.25,17.87c.06-.39-.12-.82.21-1.15a2,2,0,0,1,1.09,1.7,1.15,1.15,0,0,1-.47.92C547.29,19.14,547.47,18.39,547.25,17.87Z" transform="translate(-475.34 -0.14)"/><path class="cls-163" d="M550.67,22.16v-.59a1.15,1.15,0,0,1,1.45-.24l0,.78A1.19,1.19,0,0,1,550.67,22.16Z" transform="translate(-475.34 -0.14)"/><path class="cls-164" d="M552.68,23.56c0-.23,0-.45,0-.68l.86-.54a.83.83,0,0,0,.34.68C553.51,23.31,553.24,23.75,552.68,23.56Z" transform="translate(-475.34 -0.14)"/><path class="cls-165" d="M547.3,14.25l0-.89c.25-.19.48-.45.85-.38,0,.23,0,.46,0,.68C548.06,14.14,547.72,14.25,547.3,14.25Z" transform="translate(-475.34 -0.14)"/><path class="cls-166" d="M548.08,19.34c.06-.31,0-.66.25-.92a.62.62,0,0,1,.4.74l-.08,1.1A1.58,1.58,0,0,1,548.08,19.34Z" transform="translate(-475.34 -0.14)"/><path class="cls-141" d="M507.44,16.14c-1.16.1-.29-.81-.57-1.14.42-.18,1-.56,1.24-.09S507.56,15.65,507.44,16.14Z" transform="translate(-475.34 -0.14)"/><path class="cls-141" d="M490.26,16.14c-1.16.1-.3-.81-.57-1.14.41-.19,1-.56,1.24-.09S490.38,15.65,490.26,16.14Z" transform="translate(-475.34 -0.14)"/><path class="cls-156" d="M518.61,16.14c-1.16.09-.29-.81-.57-1.14.38-.18.78-.45,1.19-.18s0,.5,0,.75Z" transform="translate(-475.34 -0.14)"/><path class="cls-167" d="M548.73,19.16l-.4-.74-.87-1.7a2.61,2.61,0,0,1-.16-2.47l.84-.59c.7.31,1.3.65.42,1.4a.73.73,0,0,0-.16,1,9.06,9.06,0,0,0,2,3.33c.35,1.09,1,.72,1.73.42.43.5,1,1,0,1.52l-1.45.24C549.63,21.08,549.53,19.84,548.73,19.16Z" transform="translate(-475.34 -0.14)"/></svg>