<?xml version="1.0" standalone="no"?>
<!DOCTYPE svg PUBLIC "-//W3C//DTD SVG 20010904//EN"
 "http://www.w3.org/TR/2001/REC-SVG-20010904/DTD/svg10.dtd">
<svg version="1.0" xmlns="http://www.w3.org/2000/svg"
 width="300.000000pt" height="300.000000pt" viewBox="0 0 300.000000 300.000000"
 preserveAspectRatio="xMidYMid meet">
<metadata>
Created by potrace 1.14, written by Peter Selinger 2001-2017
</metadata>
<g transform="translate(0.000000,300.000000) scale(0.100000,-0.100000)"
fill="#000000" stroke="none">
<path d="M1313 2928 c1 -3 -7 -14 -18 -23 -19 -16 -19 -16 7 -1 23 14 27 14
32 0 9 -24 7 -31 -4 -14 -8 12 -12 13 -19 2 -4 -8 -11 -13 -15 -13 -3 1 -7 1
-8 0 -23 -6 -58 -6 -58 1 0 4 11 7 25 6 13 -2 22 0 20 5 -6 9 -61 6 -71 -4 -4
-3 -14 -2 -24 3 -10 5 -20 6 -24 3 -7 -7 -31 -14 -58 -16 -9 -1 -16 -4 -16 -7
2 -23 -4 -40 -12 -35 -5 3 -8 11 -6 18 1 7 1 9 -2 4 -4 -9 -82 -47 -94 -47 -5
0 -6 5 -2 12 5 7 3 8 -5 4 -7 -5 -10 -15 -6 -23 4 -13 3 -14 -10 -3 -13 11
-14 10 -8 -6 6 -16 4 -17 -9 -7 -17 14 -29 8 -22 -12 3 -7 0 -16 -6 -20 -6 -3
-10 -3 -9 2 4 22 -3 25 -17 7 -8 -10 -13 -14 -10 -8 3 6 -2 11 -10 11 -9 0
-13 -6 -9 -15 4 -10 0 -12 -11 -8 -12 5 -14 1 -9 -17 7 -21 6 -21 -7 -3 -12
15 -17 16 -23 6 -5 -9 -4 -11 3 -6 7 4 12 2 12 -5 0 -6 -8 -9 -20 -6 -11 3
-18 1 -14 -4 3 -5 -6 -9 -21 -9 -24 0 -25 -2 -14 -22 11 -20 11 -22 -3 -10
-10 8 -19 9 -22 3 -3 -5 0 -12 6 -15 7 -3 1 -4 -14 -1 -15 3 -30 0 -34 -7 -5
-7 -3 -8 6 -3 9 6 11 4 6 -4 -5 -7 -14 -10 -22 -7 -8 3 -13 0 -11 -6 1 -7 -2
-12 -8 -13 -5 0 -22 -8 -36 -18 -18 -12 -25 -25 -23 -42 1 -15 -2 -23 -8 -19
-5 3 -16 -2 -24 -12 -9 -11 -12 -12 -8 -4 4 8 -4 4 -17 -10 -13 -13 -23 -28
-22 -32 2 -5 -3 -8 -11 -8 -8 0 -18 -5 -22 -12 -5 -7 -3 -8 7 -3 12 8 12 6 0
-8 -7 -9 -17 -15 -21 -12 -4 3 -14 -3 -21 -12 -12 -14 -12 -16 1 -8 8 4 6 -1
-5 -12 -11 -11 -24 -18 -30 -15 -5 3 -4 -1 3 -10 10 -13 10 -18 1 -24 -8 -4
-9 -3 -5 4 4 7 3 12 -3 12 -19 0 -21 -19 -4 -30 16 -10 16 -11 1 -6 -9 3 -27
-4 -40 -14 -13 -11 -19 -19 -14 -20 5 0 3 -7 -4 -15 -7 -8 -9 -22 -6 -31 6
-14 4 -15 -9 -4 -9 7 -15 9 -14 4 4 -23 -2 -35 -14 -28 -9 6 -9 4 1 -8 10 -13
10 -18 1 -24 -8 -4 -9 -3 -5 4 4 7 4 12 -1 12 -16 0 -31 -48 -19 -60 8 -8 7
-11 -4 -8 -9 2 -14 -4 -14 -14 1 -10 -2 -16 -6 -13 -9 5 -22 -11 -27 -30 -1
-5 -6 -24 -11 -41 -7 -23 -7 -35 1 -44 9 -8 8 -10 -5 -5 -24 9 -44 -32 -52
-107 -2 -18 0 -25 8 -21 6 3 6 0 -1 -8 -7 -7 -13 -17 -13 -22 0 -4 6 -5 13 -1
10 6 10 4 0 -7 -7 -7 -13 -23 -13 -35 0 -12 -7 -27 -15 -34 -8 -7 -12 -16 -9
-22 3 -5 0 -16 -8 -25 -9 -12 -9 -15 0 -9 8 5 12 0 12 -13 0 -12 -5 -21 -12
-21 -6 0 -8 -3 -4 -7 4 -5 14 1 22 11 8 11 14 15 14 9 0 -7 -5 -15 -10 -18 -6
-4 -8 -10 -5 -14 2 -5 -2 -17 -10 -27 -8 -10 -15 -14 -15 -8 0 5 5 15 12 22 8
8 8 12 1 12 -22 0 -25 -28 -7 -89 4 -14 3 -22 -2 -18 -8 4 -11 -96 -4 -113 1
-3 2 -14 1 -25 -1 -18 0 -18 9 3 5 12 15 22 22 21 10 0 10 -2 1 -6 -7 -2 -13
-16 -13 -29 0 -14 -4 -23 -8 -20 -4 2 -8 -4 -8 -14 0 -10 4 -16 9 -13 6 3 8
-8 5 -25 -2 -17 -1 -29 2 -27 4 2 16 -2 26 -10 18 -15 18 -15 -1 -8 -18 6 -19
5 -5 -12 14 -17 13 -18 -4 -12 -16 6 -17 5 -6 -8 7 -8 16 -13 19 -10 4 2 8 -2
8 -10 0 -8 -4 -12 -9 -9 -4 3 -8 0 -8 -5 0 -6 6 -11 13 -11 8 0 7 -4 -3 -10
-13 -8 -12 -10 4 -10 20 0 20 0 0 -16 -18 -15 -18 -15 4 -10 23 4 23 4 6 -15
-17 -19 -17 -20 2 -13 16 7 17 6 6 -8 -11 -14 -10 -17 7 -23 11 -3 18 -13 16
-23 -1 -9 2 -26 8 -37 6 -11 12 -31 12 -45 2 -30 25 -80 37 -80 5 0 8 -6 7
-12 -3 -29 2 -37 19 -31 14 6 15 4 4 -9 -10 -13 -10 -18 -1 -24 8 -4 9 -3 5 4
-4 7 -2 12 3 12 6 0 11 -7 11 -16 0 -9 5 -12 13 -8 6 4 9 4 5 -1 -4 -4 -3 -17
3 -28 9 -15 8 -18 -3 -12 -7 4 -2 -3 12 -14 21 -18 22 -20 5 -15 -11 3 -8 -2
8 -11 16 -9 27 -21 24 -28 -2 -6 4 -18 12 -28 9 -9 24 -27 33 -40 28 -37 21
-10 -8 30 l-25 36 30 -35 c28 -30 33 -43 30 -67 -2 -12 31 -24 44 -17 9 6 9 5
0 -8 -11 -12 -10 -18 6 -32 10 -9 22 -16 27 -15 16 4 44 -13 38 -23 -3 -5 -12
-1 -20 9 -7 10 -14 13 -14 7 0 -15 27 -37 38 -31 4 3 14 1 22 -5 12 -8 12 -9
-3 -4 -11 3 -17 0 -17 -9 0 -8 8 -12 20 -10 11 2 20 -1 20 -7 0 -5 7 -7 16 -4
14 5 15 4 5 -8 -8 -9 -8 -16 -2 -20 5 -4 15 2 21 11 11 17 11 17 6 -1 -8 -22
21 -59 38 -49 17 11 37 12 30 2 -3 -5 -11 -6 -17 -2 -8 5 -8 2 0 -9 7 -8 9
-19 5 -23 -4 -5 -2 -5 5 -1 6 3 14 2 18 -4 3 -5 12 -10 18 -10 7 0 1 9 -13 20
-14 11 -20 20 -14 20 6 0 17 -7 24 -15 7 -8 16 -12 21 -10 4 3 15 -10 25 -30
14 -30 20 -34 42 -28 18 4 23 3 17 -7 -5 -9 -2 -10 13 -6 12 4 23 2 28 -5 5
-8 3 -9 -6 -4 -9 6 -11 4 -5 -4 4 -7 16 -11 26 -8 17 4 23 -3 21 -24 -1 -3 4
-6 11 -7 24 -1 56 -11 79 -23 21 -11 22 -11 9 5 -12 14 -12 16 2 10 9 -3 19
-14 22 -25 6 -18 16 -23 43 -20 6 1 12 -4 12 -10 0 -7 3 -9 6 -6 4 4 1 14 -7
23 -13 16 -12 16 8 4 12 -8 19 -18 16 -24 -3 -5 -1 -6 5 -2 7 4 12 2 12 -5 0
-7 7 -4 15 7 8 11 15 14 15 7 0 -15 46 -18 55 -3 8 14 35 0 35 -18 0 -13 -2
-13 -13 2 -12 16 -14 16 -26 2 -12 -14 -12 -16 2 -11 8 4 18 2 21 -4 4 -6 13
-8 20 -5 8 3 17 0 21 -6 5 -8 10 -8 20 0 8 7 21 7 36 2 29 -11 51 -5 43 11 -3
7 2 3 10 -7 12 -15 16 -16 16 -5 0 8 3 10 8 4 4 -5 18 -12 31 -13 19 -3 23 0
17 15 -5 16 -4 16 10 -2 11 -14 18 -16 21 -7 3 6 9 12 14 12 6 0 7 -4 4 -10
-3 -5 -1 -10 4 -10 6 0 11 6 11 13 0 8 3 8 8 1 8 -11 87 -13 98 -1 10 10 26 9
20 -1 -2 -4 4 -8 14 -8 15 0 17 3 7 15 -10 12 -9 13 11 2 15 -8 22 -8 22 -1 0
6 5 8 10 5 6 -4 17 -1 25 5 8 6 33 14 57 16 24 2 52 6 63 8 11 3 26 5 33 5 7
1 11 5 7 10 -3 5 -1 13 5 16 6 4 9 3 8 -2 -2 -4 2 -8 7 -8 6 0 9 3 8 6 -1 3 9
4 22 1 15 -2 25 0 25 7 0 7 -5 9 -12 5 -6 -4 -8 -3 -5 4 4 5 17 8 29 4 13 -3
19 -1 15 5 -4 7 5 10 24 8 24 -2 29 1 24 13 -4 12 -3 13 10 2 11 -9 15 -9 15
-1 0 7 5 9 10 6 6 -3 10 0 10 7 0 8 10 15 22 15 13 1 24 7 26 13 2 5 8 8 13 4
5 -3 9 0 9 5 0 6 3 10 8 9 12 -3 72 32 72 42 0 6 6 9 13 8 6 -2 11 3 9 10 -1
6 1 11 5 11 23 -4 35 3 30 15 -4 10 -1 13 8 10 7 -3 23 4 34 15 12 12 21 18
21 15 0 -9 86 80 88 90 0 5 11 14 23 20 12 6 21 15 20 20 -1 5 8 14 21 20 12
6 28 21 34 34 6 12 13 20 16 17 3 -3 11 8 18 25 7 17 21 35 31 41 11 5 19 16
19 24 0 7 4 15 8 17 11 4 64 98 56 98 -4 0 0 8 9 18 10 10 14 22 11 25 -4 4 1
9 10 13 9 3 13 10 10 15 -3 5 2 12 10 15 9 3 14 9 11 14 -2 4 4 23 14 43 10
20 15 34 10 32 -9 -6 -3 35 7 44 4 3 4 -2 1 -12 -4 -9 -2 -17 3 -17 10 0 14
14 11 37 -1 7 2 13 7 13 5 0 9 6 10 13 1 6 4 26 7 42 4 17 7 37 9 45 1 9 4 20
8 25 14 25 17 67 7 88 -11 20 -11 21 4 8 22 -18 22 -3 0 23 -15 17 -15 18 -2
8 14 -10 18 -10 22 2 8 22 1 51 -13 48 -6 -1 -9 2 -5 8 3 6 11 8 16 4 12 -7 8
34 -5 55 -6 10 -5 12 3 7 8 -6 11 0 8 21 -3 15 -10 27 -16 25 -7 -1 -10 2 -6
8 3 6 10 8 14 6 4 -3 8 10 9 29 1 19 -3 35 -9 35 -6 0 -7 -5 -3 -12 5 -7 3 -8
-6 -3 -11 7 -10 10 1 19 14 11 23 80 9 71 -4 -2 -5 8 -2 23 5 25 4 26 -13 12
-18 -14 -18 -14 0 13 10 16 14 32 9 35 -16 12 -40 46 -26 38 6 -4 12 -4 13 1
0 4 2 16 4 26 2 9 -3 24 -12 32 -8 8 -11 15 -6 15 4 0 -1 7 -11 15 -12 9 -14
15 -7 15 7 0 11 6 8 13 -2 6 -10 11 -17 9 -10 -2 -11 0 -2 11 9 10 9 17 -1 27
-6 7 -7 10 -1 7 8 -4 8 3 0 27 -7 24 -15 32 -26 28 -13 -5 -13 -3 -2 10 11 14
10 18 -5 27 -10 6 -15 11 -11 11 4 0 0 20 -9 45 -8 25 -18 43 -23 40 -4 -2
-10 9 -14 26 -5 25 -10 30 -23 24 -14 -5 -15 -4 -6 6 10 10 9 15 -5 26 -9 8
-11 12 -4 8 6 -3 12 -1 12 4 0 11 -15 15 -34 12 -5 -1 -4 4 3 13 13 16 -1 32
-19 21 -5 -3 -7 0 -4 8 3 9 -4 21 -15 29 -12 8 -18 18 -14 21 3 4 2 7 -4 7 -6
0 -13 10 -16 21 -4 16 -11 20 -24 15 -14 -6 -15 -5 -6 5 10 10 8 16 -8 30 -11
10 -20 20 -20 23 3 20 0 26 -9 21 -6 -3 -10 2 -10 11 0 10 -3 14 -7 11 -3 -4
-11 3 -17 16 -7 12 -19 22 -28 22 -9 0 -20 4 -25 9 -4 5 -3 6 5 2 6 -4 12 -2
12 5 0 7 -8 9 -21 6 -14 -4 -17 -2 -11 6 15 18 -11 39 -28 24 -10 -9 -11 -9
-5 1 9 17 -22 52 -47 52 -10 0 -18 5 -18 10 0 6 -7 10 -15 10 -8 0 -15 6 -15
14 0 24 -42 44 -70 34 -13 -5 -21 -6 -17 -2 4 4 -1 13 -11 21 -10 9 -11 11 -2
7 13 -7 13 -5 1 9 -11 13 -17 14 -35 5 -18 -10 -19 -9 -9 4 14 17 8 28 -16 28
-14 0 -14 -2 -1 -10 11 -7 11 -10 2 -10 -7 0 -17 10 -22 23 -8 20 -9 20 -10 2
0 -16 -2 -17 -9 -5 -6 8 -7 18 -4 24 3 5 1 6 -5 2 -5 -3 -13 0 -15 6 -4 9 -6
9 -6 -2 -1 -10 -6 -7 -17 8 -9 13 -22 21 -30 18 -7 -3 -16 -1 -20 5 -4 6 -15
4 -30 -5 -22 -15 -24 -15 -34 7 -10 20 -10 20 3 5 14 -17 27 -15 27 5 0 6 -3
7 -7 4 -3 -4 -12 -2 -20 4 -7 6 -13 8 -13 3 0 -4 -7 1 -16 12 -13 16 -15 16
-10 2 3 -10 1 -18 -5 -18 -6 0 -7 -5 -3 -12 4 -6 3 -8 -4 -4 -6 3 -8 18 -6 33
5 26 5 26 -13 7 -10 -11 -17 -18 -16 -16 3 7 -25 32 -36 32 -6 0 -11 -5 -11
-11 0 -5 5 -7 12 -3 7 5 8 3 3 -6 -6 -10 -13 -6 -27 13 -20 28 -38 35 -38 16
0 -5 5 -7 12 -3 7 5 8 3 3 -6 -6 -9 -4 -11 6 -5 11 6 12 5 2 -5 -11 -12 -16
-11 -29 6 -8 10 -13 14 -10 7 4 -6 2 -14 -3 -17 -6 -4 -8 8 -6 26 2 18 1 27
-2 21 -2 -7 -9 -13 -14 -13 -6 0 -7 5 -4 10 3 6 1 10 -4 10 -14 0 -14 -13 1
-28 9 -9 9 -15 -1 -24 -10 -11 -11 -9 -5 7 7 17 5 18 -8 8 -13 -11 -15 -9 -13
15 l1 27 -192 0 c-106 0 -192 -3 -191 -7z m97 -11 c0 -4 6 -5 13 0 20 13 147
11 136 -3 -5 -6 -6 -14 -2 -17 3 -4 2 -7 -4 -7 -6 0 -14 7 -17 16 -3 8 -11 12
-17 8 -6 -3 -7 -9 -3 -13 5 -3 10 -13 12 -21 1 -8 -6 -4 -17 10 -18 23 -20 23
-27 7 -6 -17 -7 -17 -21 3 -10 14 -19 18 -31 12 -9 -4 -26 -7 -37 -7 -11 1
-27 -3 -35 -9 -8 -6 -12 -6 -8 -2 4 5 1 14 -8 21 -13 9 -9 11 25 11 23 0 41
-4 41 -9z m207 -17 c3 0 1 6 -5 13 -9 11 -5 13 21 12 42 -1 63 -13 47 -29 -8
-8 -14 -7 -21 7 -10 17 -29 15 -29 -4 0 -6 5 -7 12 -3 7 4 8 3 4 -4 -5 -9 -13
-9 -27 -2 -10 6 -19 7 -19 3 0 -4 -5 -1 -10 7 -8 12 -10 12 -10 1 0 -8 -2 -12
-5 -9 -3 3 -3 12 1 21 5 15 8 15 21 2 8 -8 17 -15 20 -15z m-411 -37 c-2 -3
-13 0 -25 6 -16 9 -22 7 -34 -10 -11 -15 -16 -17 -20 -7 -5 11 -7 11 -15 -1
-6 -8 -12 -9 -16 -3 -5 9 22 25 46 27 3 0 9 3 13 7 4 4 18 2 31 -4 13 -6 22
-13 20 -15z m-152 -38 c-4 -8 -11 -12 -16 -9 -6 4 -5 10 3 15 19 12 19 11 13
-6z m985 -10 c8 0 16 -7 18 -15 4 -13 3 -13 -6 0 -9 12 -13 13 -20 2 -7 -11
-9 -10 -15 3 -3 9 -11 13 -17 9 -8 -4 -9 -3 -5 5 4 6 13 8 19 4 7 -4 18 -8 26
-8z m260 -142 c2 -1 -5 -1 -16 0 -11 0 -20 7 -20 14 0 10 4 10 16 1 9 -7 18
-13 20 -15z m90 -67 c9 -10 8 -15 -2 -19 -8 -3 -13 3 -13 14 0 23 0 23 15 5z
m-1743 -8 c4 -7 4 -10 -1 -6 -4 4 -15 -2 -25 -14 -14 -17 -18 -19 -25 -7 -5 8
-5 11 0 7 5 -5 14 1 22 12 17 23 19 24 29 8z m1853 -101 c0 -9 -2 -8 -6 1 -2
6 -10 9 -15 6 -7 -4 -8 -2 -4 5 9 13 26 5 25 -12z m-2125 -185 c3 -5 -1 -9 -9
-9 -8 0 -12 4 -9 9 3 4 7 8 9 8 2 0 6 -4 9 -8z m2434 -337 c-3 -3 -9 2 -12 12
-6 14 -5 15 5 6 7 -7 10 -15 7 -18z m-2604 -10 c-3 -7 -12 -16 -19 -19 -9 -3
-12 0 -8 10 3 7 9 14 15 14 5 0 6 5 2 12 -4 7 -3 8 4 4 6 -4 9 -13 6 -21z
m-29 -64 c3 -5 2 -12 -3 -15 -5 -3 -9 1 -9 9 0 17 3 19 12 6z m2690 -71 c3 -5
1 -10 -4 -10 -6 0 -11 5 -11 10 0 6 2 10 4 10 3 0 8 -4 11 -10z m-2702 -84 c6
-15 -17 -16 -30 -1 -4 4 -2 5 5 1 6 -4 12 -2 12 3 0 15 7 14 13 -3z m-8 -44
c-3 -3 -11 0 -18 7 -9 10 -8 11 6 5 10 -3 15 -9 12 -12z m-20 -120 c-3 -3 -11
0 -18 7 -9 10 -8 11 6 5 10 -3 15 -9 12 -12z m5 -52 c-8 -5 -19 -10 -25 -10
-5 0 -3 5 5 10 8 5 20 10 25 10 6 0 3 -5 -5 -10z m0 -49 c0 -5 -7 -11 -14 -14
-10 -4 -13 -1 -9 9 6 15 23 19 23 5z m-5 -31 c-3 -5 -12 -10 -18 -10 -7 0 -6
4 3 10 19 12 23 12 15 0z m24 -94 c10 -12 9 -14 -5 -12 -10 2 -20 8 -22 14 -5
17 13 15 27 -2z m2704 -91 c-3 -9 -8 -14 -10 -11 -3 3 -2 9 2 15 9 16 15 13 8
-4z m-2643 -139 c0 -2 -8 -10 -17 -17 -16 -13 -17 -12 -4 4 13 16 21 21 21 13z
m34 -168 c-3 -4 -1 -8 4 -8 5 0 9 -7 9 -15 0 -20 -2 -19 -20 8 -12 19 -13 24
-2 24 8 0 12 -4 9 -9z m256 -389 c0 -5 5 -7 12 -3 7 4 8 3 4 -5 -6 -9 -11 -9
-22 0 -17 14 -18 19 -4 19 6 0 10 -5 10 -11z m176 -155 c2 -12 -1 -13 -12 -3
-7 6 -11 16 -8 21 7 11 17 3 20 -18z m133 -80 c4 3 8 -1 8 -9 0 -11 -4 -12
-14 -4 -7 6 -13 17 -12 23 0 7 2 6 6 -2 2 -6 8 -10 12 -8z m106 -34 c3 -5 1
-10 -4 -10 -6 0 -11 5 -11 10 0 6 2 10 4 10 3 0 8 -4 11 -10z m60 -42 c5 4 5
1 1 -6 -6 -10 -11 -10 -22 -1 -8 6 -14 14 -14 16 0 3 6 0 13 -6 8 -6 18 -7 22
-3z m105 -60 c0 -6 -6 -5 -15 2 -8 7 -15 14 -15 16 0 2 7 1 15 -2 8 -4 15 -11
15 -16z m236 -30 c4 4 2 -1 -5 -11 -15 -19 -24 -16 -27 9 -2 11 1 12 10 5 7
-6 17 -7 22 -3z m51 -13 c0 -8 -4 -12 -9 -9 -5 3 -6 10 -3 15 9 13 12 11 12
-6z m267 0 c-4 -8 -8 -15 -10 -15 -2 0 -4 7 -4 15 0 8 4 15 10 15 5 0 7 -7 4
-15z"/>
<path d="M1466 2908 c3 -5 10 -6 15 -3 13 9 11 12 -6 12 -8 0 -12 -4 -9 -9z"/>
<path d="M1860 2891 c0 -6 4 -13 10 -16 6 -3 7 1 4 9 -7 18 -14 21 -14 7z"/>
<path d="M2875 1781 c-3 -5 -2 -12 3 -15 5 -3 9 1 9 9 0 17 -3 19 -12 6z"/>
</g>
</svg>
